<svg width="45" height="54" viewBox="0 0 45 54" fill="none" xmlns="http://www.w3.org/2000/svg">
<path d="M44.5235 16.7847C41.4935 5.63974 31.2785 -1.15526 19.3385 0.164738C8.7335 1.28974 0.213502 10.7397 0.0185023 21.7047C-0.176498 26.8047 1.1585 31.7097 4.5635 35.4897C10.4285 41.7297 16.6835 47.3847 23.1185 53.9997C26.1485 50.7897 29.1785 47.3847 32.2085 44.1747C34.2935 42.2847 36.1835 40.2147 38.2685 38.3247C41.8685 34.7397 44.1335 30.3897 44.8985 25.2897C44.8985 24.9147 45.2735 19.0497 44.5235 16.7847Z" fill="#ECCD75"/>
<path d="M22.5028 25.4443C22.5028 25.4443 22.4797 25.4405 22.4682 25.4405H22.445C22.445 25.4405 22.4258 25.4405 22.4142 25.4405C22.3834 25.4405 22.3564 25.4405 22.3294 25.4405H21.316C21.316 25.4405 21.3006 25.4289 21.2968 25.4212C21.0887 25.0667 20.8421 24.3462 20.5647 23.2595C20.2217 21.9302 19.8903 20.3426 19.5667 18.4892C19.27 16.7938 19.0735 15.4914 18.9771 14.5743C18.9617 14.4433 19.0696 14.3277 19.2006 14.3277H19.7555C19.8788 14.3277 19.979 14.2275 19.979 14.1004V13.7767C19.979 13.6534 19.8788 13.5494 19.7555 13.5494H14.149C14.0257 13.5494 13.9255 13.6496 13.9255 13.7767V14.1004C13.9255 14.2237 14.0257 14.3277 14.149 14.3277H14.9158C15.3666 14.3277 15.6788 14.4318 15.8521 14.6398C15.9485 14.7631 15.9986 14.9365 15.9986 15.1562C15.9986 15.5993 15.8868 16.0732 15.6672 16.5742C15.5554 16.8439 15.332 17.2639 14.989 17.8265C14.2184 19.1289 13.6365 20.3465 13.2474 21.4755C12.9275 22.3849 12.7156 23.275 12.6039 24.1458C12.5422 24.6506 12.4921 24.9511 12.4574 25.0474C12.3958 25.2401 12.2995 25.3673 12.1762 25.4366H11.3207C11.3207 25.4366 11.2822 25.4366 11.2668 25.4366C11.2591 25.4366 11.2514 25.4366 11.2398 25.4366H10.8969C10.7389 25.4366 10.5154 25.5522 10.5 25.9221L10.6079 26.319H10.6117C10.6464 26.423 10.685 26.5348 10.7312 26.6504C10.8545 26.9201 10.9662 27.2746 11.0703 27.71C11.1743 28.1454 11.2437 28.5115 11.2822 28.8082C11.3207 29.101 11.3554 29.2976 11.394 29.3977C11.4787 29.6174 11.6213 29.7291 11.814 29.7291C12.0336 29.7291 12.207 29.5827 12.3264 29.286C12.338 29.2475 12.4112 28.9855 12.5461 28.4922C12.7541 27.6445 13.0701 27.0935 13.4901 26.8353C13.914 26.5772 14.7732 26.45 16.0679 26.45H17.9406C18.796 26.45 19.4202 26.5541 19.8133 26.7621C20.4876 27.1166 20.8999 27.8372 21.0617 28.9161C21.0848 29.1357 21.1388 29.3284 21.2159 29.4864C21.2968 29.6444 21.4316 29.7253 21.6282 29.7253C21.8593 29.7253 22.0327 29.5596 22.1406 29.2282C22.1406 29.2166 22.2023 28.8737 22.3256 28.1955C22.3872 27.8757 22.445 27.6253 22.499 27.4403C22.5529 27.2553 22.6338 27.028 22.7379 26.7583C22.8419 26.4886 22.9036 26.3267 22.9228 26.2689C22.9421 26.215 22.9498 26.1418 22.9498 26.057C22.9498 25.899 22.9036 25.7526 22.8111 25.6254C22.7379 25.5214 22.6338 25.4597 22.5067 25.4405L22.5028 25.4443ZM14.2222 24.5003C14.2222 23.7335 14.4496 22.67 14.9004 21.3175C15.3397 20.0036 16.014 18.5817 16.6498 17.5722C16.7538 17.4065 16.9966 17.4566 17.0351 17.6492C17.3318 19.098 18.1795 23.2403 18.3837 24.088L18.6149 25.2594C18.6265 25.3287 18.6111 25.3904 18.5725 25.4405H14.4997C14.3109 25.2863 14.2145 24.9781 14.2145 24.5041L14.2222 24.5003Z" fill="#303030"/>
<path d="M30.3747 26.2036V26.5234C30.3747 26.6467 30.4557 26.7469 30.552 26.7469H34.9986C35.0988 26.7469 35.1759 26.6467 35.1759 26.5234V26.2036C35.1759 26.0803 35.095 25.9801 34.9986 25.9801H33.9852C33.9621 25.9454 33.9428 25.9107 33.9159 25.876C33.5999 25.4214 33.3417 25.0283 33.1491 24.6969C32.9526 24.3617 32.7638 24.0188 32.5749 23.6681C32.3168 23.2019 32.074 22.7665 31.8505 22.358C31.627 21.9496 31.2918 21.2984 30.8448 20.4044L30.0973 18.9209C30.448 17.9808 30.7138 17.2024 30.9797 16.8325C31.2764 16.4202 31.6309 16.2121 32.0509 16.2121C32.2243 16.2121 32.3977 16.2468 32.5711 16.3162C32.625 16.3393 32.7137 16.3662 32.8023 16.4009C32.9757 16.4664 33.1722 16.3932 33.2416 16.2237C33.5074 15.5725 34.2241 14.0504 33.5652 13.773C33.2223 13.6266 32.8948 13.5649 32.5942 13.5649C31.916 13.5649 31.2764 13.7769 30.8371 14.378C30.4518 14.9059 29.9393 15.6573 29.4076 17.056C29.4076 17.0483 29.4037 17.0444 29.3999 17.0367C29.369 17.1253 29.3344 17.2101 29.3035 17.3064C29.3035 17.3064 28.3518 15.3567 27.8624 14.3471H28.0782C28.1823 14.3471 28.2632 14.247 28.2632 14.1198V13.7961C28.2632 13.6728 28.1784 13.5688 28.0782 13.5688H23.4428C23.3387 13.5688 23.2578 13.669 23.2578 13.7961V14.1198C23.2578 14.2431 23.3426 14.3471 23.4428 14.3471H24.7991C24.9263 14.3471 25.0419 14.4011 25.1305 14.4897C25.8742 15.9154 27.5079 19.0096 27.8933 19.7417C27.6389 20.5547 27.0533 21.7107 26.4136 22.8628C25.7624 24.0265 25.1652 24.8858 24.6257 25.4869C24.4253 25.7373 24.1518 26.0032 24.2019 26.3461C24.2211 26.4694 24.2635 26.5735 24.3868 26.6544C24.5101 26.7353 24.7336 26.7777 25.0611 26.7777C25.5081 26.7777 26.0244 26.6004 26.3982 26.1226C26.9993 25.3366 27.7545 23.9224 28.8219 21.5489L29.2535 22.4467L30.2476 24.3694C30.448 24.7201 30.5944 24.9859 30.6792 25.1632C30.8217 25.4406 30.9296 25.668 31.0028 25.8414C31.0259 25.8953 31.0491 25.9415 31.0722 25.9916L30.552 25.9839C30.4518 25.9839 30.3747 26.0841 30.3747 26.2074V26.2036Z" fill="#303030"/>
</svg>
