<svg xmlns="http://www.w3.org/2000/svg" viewBox="0 0 18 22">
  <path d="M14.2569 1.19825L4.79887 0.702579C2.94277 0.605305 1.35818 2.02178 1.26091 3.87788L0.565548 17.1461C0.468274 19.0022 1.89605 20.5779 3.75215 20.6752L13.2102 21.1708C15.0663 21.2681 16.6419 19.8499 16.7391 17.9938L17.4345 4.7255C17.5313 2.86938 16.113 1.29553 14.2569 1.19825ZM6.08696 16.9028C6.06565 17.3092 5.70677 17.6114 5.30074 17.5901L3.73362 17.508C3.32758 17.4867 3.0113 17.1496 3.03263 16.7427L3.11473 15.176C3.13603 14.7695 3.48636 14.457 3.8924 14.4782L5.45952 14.5604C5.86556 14.5817 6.19037 14.9296 6.16906 15.3361L6.08696 16.9028ZM6.29928 12.8515C6.27802 13.2571 5.91801 13.5808 5.51197 13.5595L3.94485 13.4774C3.53882 13.4561 3.22369 13.097 3.24494 12.6914L3.32707 11.1243C3.34835 10.7182 3.69891 10.4014 4.10494 10.4227L5.67206 10.5048C6.0781 10.5261 6.40271 10.8779 6.3814 11.2844L6.29928 12.8515ZM10.2972 17.1234C10.2759 17.5299 9.92565 17.8325 9.51875 17.8111L7.95163 17.729C7.54516 17.7077 7.2211 17.3702 7.24243 16.9633L7.32454 15.3966C7.34584 14.9902 7.70394 14.678 8.11041 14.6993L9.67753 14.7814C10.0836 14.8027 10.4006 15.1502 10.3793 15.5567L10.2972 17.1234ZM10.5095 13.0721C10.4883 13.4777 10.1369 13.8019 9.72998 13.7806L8.16286 13.6985C7.75639 13.6772 7.43349 13.3176 7.45475 12.912L7.53688 11.3449C7.55816 10.9389 7.91649 10.6224 8.32295 10.6437L9.89008 10.7258C10.2961 10.7471 10.6129 11.0985 10.5916 11.505L10.5095 13.0721ZM14.3273 17.3346C14.306 17.7411 13.9519 18.0435 13.5445 18.0221L11.9779 17.94C11.5718 17.9187 11.2508 17.5814 11.2721 17.1745L11.3542 15.6078C11.3755 15.2013 11.7293 14.889 12.1366 14.9103L13.7033 14.9924C14.1094 15.0137 14.4307 15.3615 14.4094 15.7679L14.3273 17.3346ZM14.5396 13.2833C14.5184 13.6889 14.1631 14.0129 13.7558 13.9916L12.1891 13.9095C11.783 13.8882 11.4632 13.5288 11.4844 13.1232L11.5666 11.5561C11.5878 11.1501 11.9418 10.8334 12.3492 10.8547L13.9159 10.9368C14.3219 10.9581 14.6431 11.3097 14.6218 11.7162L14.5396 13.2833ZM14.8396 7.55868C14.7962 8.38759 14.0967 9.0158 13.2682 8.97238L4.96996 8.53749C4.14148 8.49407 3.50152 7.79566 3.54496 6.96675L3.61543 5.62208C3.65885 4.7936 4.36928 4.15557 5.19733 4.19896L13.4956 4.63385C14.324 4.67727 14.9535 5.38553 14.9101 6.21401L14.8396 7.55868Z" />
</svg>
