<svg xmlns="http://www.w3.org/2000/svg" viewBox="0 0 22 22" >
    <path d="M16.5157 11.8063C16.3387 11.6802 16.1149 11.6517 15.9187 11.7333L13.7977 12.5567C13.8231 12.7083 13.8232 12.8668 13.8149 13.0249L13.4878 19.2664C13.4795 19.4245 13.4629 19.5822 13.4217 19.7302L15.445 20.7709C15.5261 20.8168 15.6168 20.8383 15.7 20.8426C15.8165 20.8487 15.9347 20.8215 16.0464 20.7606C16.2273 20.6533 16.3459 20.4592 16.3568 20.2512L16.7712 12.3454C16.7821 12.1373 16.6843 11.9319 16.5157 11.8063Z" />
    <path d="M10.2686 20.9753L2.36274 20.561C1.33083 20.5069 0.534318 19.6232 0.588442 18.5904L0.915542 12.349C0.969666 11.3162 1.85419 10.5206 2.8861 10.5747L10.7919 10.989C11.8238 11.0431 12.6203 11.9268 12.5662 12.9596L12.2391 19.201C12.185 20.2338 11.3005 21.0294 10.2686 20.9753Z" />
    <path d="M20.0514 1.46071L12.9778 1.09C12.1748 1.04791 11.4872 1.66694 11.4452 2.47001L11.2489 6.21487C11.2068 7.01793 11.8258 7.70544 12.6289 7.74753L13.6692 7.80204L13.571 9.67447C13.5575 9.93162 13.7035 10.1713 13.9383 10.277C14.0101 10.3092 14.0867 10.3274 14.1625 10.3313C14.3339 10.3403 14.5057 10.2784 14.6333 10.1532L16.8564 7.96908L19.7025 8.11824C20.5056 8.16033 21.1931 7.54129 21.2352 6.73823L21.4315 2.99337C21.4735 2.1903 20.8545 1.50279 20.0514 1.46071ZM14.227 5.11923C13.8825 5.10117 13.6175 4.8069 13.6356 4.46237C13.6536 4.11785 13.9479 3.85288 14.2924 3.87094C14.6369 3.889 14.9019 4.18327 14.8838 4.52779C14.8658 4.87232 14.5715 5.13728 14.227 5.11923ZM16.3075 5.22826C15.9629 5.2102 15.698 4.91593 15.716 4.57141C15.7341 4.22688 16.0284 3.96192 16.3729 3.97997C16.7174 3.99803 16.9824 4.2923 16.9643 4.63683C16.9463 4.98135 16.652 5.24632 16.3075 5.22826ZM18.3879 5.33729C18.0434 5.31924 17.7785 5.02497 17.7965 4.68044C17.8146 4.33591 18.1088 4.07095 18.4534 4.08901C18.7979 4.10706 19.0629 4.40133 19.0448 4.74586C19.0267 5.09039 18.7325 5.35535 18.3879 5.33729Z" />
</svg>
