<svg xmlns="http://www.w3.org/2000/svg" viewBox="0 0 211 45" fill="none">
  <path d="M48.3876 34.0156C49.1485 33.1475 53.746 29.8681 53.5852 24.7348C53.4245 19.5907 50.338 17.4152 49.4378 16.59C48.7734 15.9898 46.3942 13.9536 45.1725 12.9141C44.7331 12.539 44.1115 12.5283 43.6507 12.8713C42.4076 13.8036 40.5857 15.0146 39.1497 16.4185C37.9708 17.5652 32.7303 23.4488 36.2883 30.0182C37.0277 31.3792 39.0961 32.8796 40.7036 34.2299C41.8717 35.2159 42.8791 36.1053 43.5221 36.6841C43.9615 37.0806 44.6152 37.102 45.0761 36.7484C46.1263 35.9553 47.8732 34.5943 48.3876 34.0048V34.0156ZM45.7405 32.6438C45.3976 32.9439 44.8403 32.826 44.5724 32.4509C44.0044 31.6471 42.6969 30.3183 40.3499 27.9391C36.3097 23.8453 39.8141 19.237 42.0003 17.5116C42.4183 17.1794 42.9648 16.6221 43.5221 17.4902C44.0044 18.2511 44.7867 19.2692 46.48 20.8231C49.4807 23.5881 53.253 26.1065 45.7405 32.6438Z" fill="#57453A"/>
  <path d="M65.2342 18.7548L68.7172 35.966C68.8136 36.4269 69.2209 36.7698 69.6924 36.7698H73.3897C73.9363 36.7698 74.4078 36.384 74.515 35.8482L77.8801 19.0013C77.9122 18.8298 78.148 18.8298 78.1909 19.0013L81.8989 35.9232C81.9953 36.384 82.4133 36.7162 82.8848 36.7269L86.4321 36.7484C86.8715 36.7484 87.2037 36.3519 87.1073 35.9232C87.1073 35.9232 83.1313 17.5759 82.3276 13.9858C82.2525 13.6322 81.931 13.3857 81.5667 13.3857H76.594C76.1654 13.3857 75.7903 13.6965 75.7153 14.1144L72.7467 28.9036C72.6931 29.1501 72.3395 29.1608 72.2859 28.9036L69.0065 13.9429C68.9422 13.6322 68.6636 13.4071 68.3421 13.3964C67.3133 13.375 65.2021 13.3535 65.2021 13.3535C64.7734 13.3535 64.3876 13.5893 64.2054 13.9858C63.6695 15.1325 62.4693 17.6295 61.1618 19.5264C59.4257 22.0449 55.0318 27.832 55.2997 35.7731C55.3211 36.3411 55.8034 36.7805 56.3607 36.7805H60.4116C61.001 36.802 61.4619 36.2768 61.3761 35.6874C60.9903 33.1689 60.3473 26.9103 62.5871 22.6343C63.8946 20.1587 64.5376 19.1192 64.8591 18.6798C64.9663 18.5297 65.2021 18.5833 65.2449 18.7655L65.2342 18.7548Z" fill="#57453A"/>
  <path d="M139.318 19.6115L143.058 36.3512C143.112 36.6084 143.337 36.7906 143.594 36.7906L148.031 36.8227C148.395 36.8227 148.663 36.4905 148.577 36.1369L143.294 13.9637C143.23 13.7172 143.015 13.5351 142.758 13.5351L140.347 13.4922C140.186 13.4922 140.036 13.5672 139.918 13.6744C130.048 23.0409 130.337 33.9506 130.52 36.2762C130.541 36.5655 130.788 36.7799 131.077 36.7799L134.656 36.8013C135.042 36.8013 135.278 36.4369 135.181 36.0726C133.242 28.6779 136.96 22.1943 138.675 19.8901C138.964 19.5043 139.211 19.1721 139.318 19.6329V19.6115Z" fill="#57453A"/>
  <path d="M210.146 36.2661L203.427 13.5785C203.384 13.4499 203.277 13.3642 203.137 13.3642L199.622 13.332C199.472 13.332 199.344 13.4392 199.322 13.5892C199.215 14.3287 197.843 17.5866 195.871 20.5123C192.281 25.8171 187.469 35.4302 192.999 36.9627C197.94 38.3344 200.747 30.9076 201.83 27.9176C201.926 27.639 202.323 27.6604 202.398 27.9391L204.873 36.4161C204.906 36.5447 205.023 36.6304 205.163 36.6304L209.846 36.6626C210.05 36.6626 210.189 36.4697 210.135 36.2768L210.146 36.2661ZM196.407 32.6759C194.35 33.469 193.985 30.8219 194.757 27.6176C195.389 24.9705 198.347 20.298 199.365 18.744C199.504 18.5404 199.804 18.594 199.869 18.8405L201.069 23.4273C201.069 23.4273 201.08 23.513 201.069 23.5559C200.78 25.4635 198.175 32.0115 196.407 32.6866V32.6759Z" fill="#57453A"/>
  <path d="M186.827 26.3851C186.441 26.353 185.991 26.3101 185.766 26.2887C183.472 25.9993 180.118 25.6778 176.86 22.945C176.71 22.8164 176.613 22.6235 176.613 22.4199L176.656 15.7004H179.839C180.311 15.7326 180.771 15.7004 181.039 15.7647C182.047 15.9898 182.958 16.1934 183.633 18.101C183.987 19.1084 184.158 19.8371 184.244 20.298C184.308 20.6623 184.619 20.9195 184.994 20.9303H185.005C185.423 20.9303 185.766 20.598 185.776 20.1694L185.808 14.618C185.808 14.2001 185.476 13.8571 185.048 13.8464L175.424 13.7607L172.198 13.7393C171.834 13.7393 171.523 14.0286 171.523 14.4037L171.384 36.2875C171.384 36.6519 171.684 36.9519 172.048 36.9626L185.744 37.0484C185.744 37.0484 187.502 37.0913 187.373 35.0551L187.427 27.071C187.427 26.7173 187.159 26.428 186.816 26.4066L186.827 26.3851ZM182.143 34.5835C181.95 35.6659 180.396 35.5373 180.396 35.5373L177.289 35.5159C176.924 35.5159 176.624 35.2158 176.624 34.8407L176.678 26.7602C176.678 26.2137 177.267 26.2137 177.706 26.5459C178.917 27.4461 180.493 28.0998 181.211 28.4963C182.197 29.0429 182.175 29.3001 182.175 29.3001L182.143 34.5835Z" fill="#57453A"/>
  <path d="M158.919 15.3679C161.395 15.3786 162.574 18.9366 165.489 18.958C167.654 18.9687 168.715 17.7149 169.111 17.0612C169.175 16.8468 169.068 16.7396 168.961 16.6968C168.597 16.6968 168.018 16.6861 167.632 16.5682C164.867 15.7858 165.199 13.1602 158.855 13.1174C153.636 13.0852 149.864 17.6934 149.81 25.3453C149.756 32.9971 155.372 36.973 159.98 37.0052C163.71 37.0266 166.796 34.2081 167.836 33.1364C168.061 32.9114 168.061 32.5577 167.857 32.3112L167.343 31.7218C167.128 31.4753 166.764 31.4539 166.518 31.6468C162.381 34.7868 158.866 34.4331 157.001 32.6434C155.393 31.1109 154.772 28.4639 154.622 25.9347C155.179 25.4417 156.079 24.9595 157.43 24.9702C160.109 24.9916 159.723 27.0921 162.777 27.1135C165.039 27.1243 166.753 25.2702 167.493 24.295C167.654 24.0807 167.482 23.7806 167.214 23.802C163.131 24.1878 163.238 21.4229 160.302 21.4122C157.623 21.3907 155.651 22.4517 154.622 23.2019C154.911 18.0257 156.615 15.3572 158.941 15.3679H158.919Z" fill="#57453A"/>
  <path d="M33.3829 33.0829C33.3829 33.0829 33.3186 33.0722 33.2865 33.0722H33.2222C33.2222 33.0722 33.1686 33.0722 33.1365 33.0722C33.0507 33.0722 32.9757 33.0722 32.9007 33.0722H30.0822C30.0822 33.0722 30.0393 33.04 30.0286 33.0186C29.4499 32.0326 28.764 30.0286 27.9924 27.0064C27.0386 23.3091 26.1169 18.8938 25.2167 13.739C24.3915 9.02358 23.845 5.40129 23.577 2.85068C23.5342 2.48631 23.8342 2.1648 24.1986 2.1648H25.7418C26.0848 2.1648 26.3634 1.88616 26.3634 1.53251V0.632294C26.3634 0.289355 26.0848 0 25.7418 0H10.1488C9.8059 0 9.52727 0.278638 9.52727 0.632294V1.53251C9.52727 1.87545 9.8059 2.1648 10.1488 2.1648H12.2815C13.5354 2.1648 14.4034 2.45416 14.8857 3.03287C15.1536 3.37581 15.2929 3.85806 15.2929 4.46892C15.2929 5.70136 14.9821 7.01953 14.3713 8.41272C14.0605 9.1629 13.4389 10.331 12.4851 11.8957C10.3417 15.518 8.72351 18.9045 7.6411 22.0445C6.75161 24.5737 6.16218 27.0493 5.85139 29.4713C5.67992 30.8752 5.5406 31.7111 5.44415 31.979C5.27268 32.5149 5.00476 32.8685 4.66182 33.0614H2.28269C2.28269 33.0614 2.17552 33.0614 2.13265 33.0614C2.11122 33.0614 2.08978 33.0614 2.05763 33.0614H1.10383C0.664444 33.0614 0.0428673 33.3829 0 34.4118L0.300071 35.5156H0.310788C0.40724 35.805 0.514408 36.1157 0.64301 36.4372C0.985949 37.1874 1.29674 38.1734 1.58609 39.3844C1.87545 40.5954 2.06835 41.6135 2.17552 42.4387C2.28269 43.2532 2.37914 43.7997 2.48631 44.0784C2.72208 44.6892 3.1186 45 3.65444 45C4.2653 45 4.74756 44.5928 5.07978 43.7676C5.11193 43.6604 5.31555 42.9316 5.69064 41.5599C6.26935 39.2022 7.14813 37.6697 8.31627 36.9517C9.49512 36.2336 11.885 35.88 15.4858 35.88H20.6942C23.0733 35.88 24.8095 36.1693 25.9026 36.748C27.778 37.734 28.9247 39.738 29.3748 42.7387C29.4391 43.3496 29.5892 43.8854 29.8035 44.3248C30.0286 44.7642 30.4037 44.9893 30.9502 44.9893C31.5932 44.9893 32.0755 44.5285 32.3756 43.6068C32.3756 43.5747 32.547 42.6209 32.89 40.7347C33.0614 39.8452 33.2222 39.1486 33.3722 38.6342C33.5223 38.1198 33.7473 37.4875 34.0367 36.7373C34.326 35.9871 34.4975 35.537 34.5511 35.3763C34.6047 35.2262 34.6261 35.0226 34.6261 34.7869C34.6261 34.3475 34.4975 33.9402 34.2403 33.5866C34.0367 33.2972 33.7473 33.1257 33.3937 33.0722L33.3829 33.0829ZM10.3525 30.4573C10.3525 28.3246 10.9848 25.3668 12.2386 21.6051C13.4603 17.9507 15.3358 13.9962 17.1041 11.1884C17.3934 10.7276 18.0686 10.8669 18.1758 11.4027C19.0009 15.4322 21.3587 26.9528 21.9266 29.3106L22.5697 32.5685C22.6018 32.7614 22.5589 32.9328 22.4518 33.0722H11.1241C10.599 32.6435 10.331 31.7861 10.331 30.468L10.3525 30.4573Z" fill="#57453A"/>
  <path d="M114.381 35.1942V36.0837C114.381 36.4266 114.606 36.7053 114.874 36.7053H127.241C127.519 36.7053 127.734 36.4266 127.734 36.0837V35.1942C127.734 34.8513 127.509 34.5726 127.241 34.5726H124.422C124.358 34.4762 124.304 34.3797 124.229 34.2833C123.351 33.0187 122.633 31.9256 122.097 31.0039C121.55 30.0716 121.025 29.1177 120.5 28.1425C119.782 26.8458 119.107 25.6348 118.485 24.4988C117.864 23.3628 116.931 21.5517 115.688 19.0654L113.609 14.9394C114.584 12.3245 115.324 10.1597 116.063 9.13085C116.888 7.98414 117.874 7.40544 119.042 7.40544C119.525 7.40544 120.007 7.50189 120.489 7.69479C120.639 7.75909 120.886 7.83411 121.132 7.93056C121.614 8.11275 122.161 7.90913 122.354 7.43758C123.093 5.62644 125.087 1.39329 123.254 0.621679C122.3 0.214439 121.389 0.0429688 120.553 0.0429688C118.667 0.0429688 116.888 0.632396 115.667 2.30422C114.595 3.77243 113.17 5.86221 111.691 9.75243C111.691 9.73099 111.68 9.72027 111.669 9.69884C111.583 9.94532 111.487 10.1811 111.401 10.449C111.401 10.449 108.754 5.0263 107.393 2.21849H107.993C108.283 2.21849 108.508 1.93985 108.508 1.58619V0.685977C108.508 0.343039 108.272 0.0536838 107.993 0.0536838H95.101C94.8116 0.0536838 94.5865 0.332322 94.5865 0.685977V1.58619C94.5865 1.92913 94.8223 2.21849 95.101 2.21849H98.8733C99.2269 2.21849 99.5484 2.36852 99.7949 2.61501C101.863 6.58024 106.407 15.1859 107.479 17.2221C106.772 19.4833 105.143 22.6984 103.364 25.9027C101.552 29.1392 99.8914 31.529 98.391 33.2009C97.8338 33.8975 97.0729 34.6369 97.2122 35.5907C97.2658 35.9337 97.3836 36.223 97.7266 36.4481C98.0695 36.6731 98.6911 36.791 99.602 36.791C100.845 36.791 102.281 36.298 103.321 34.9691C104.993 32.7829 107.093 28.8498 110.062 22.2483L111.262 24.7453L114.027 30.093C114.584 31.0682 114.991 31.8077 115.227 32.3007C115.624 33.0723 115.924 33.7046 116.127 34.1868C116.192 34.3368 116.256 34.4654 116.32 34.6048L114.874 34.5833C114.595 34.5833 114.381 34.862 114.381 35.2049V35.1942Z" fill="#57453A"/>
</svg>
