<svg xmlns="http://www.w3.org/2000/svg" viewBox="0 0 22 22" >
    <path d="M16.5157 12.1238C16.3387 11.9977 16.1149 11.9692 15.9187 12.0508L13.7977 12.8742C13.8231 13.0258 13.8231 13.1843 13.8148 13.3424L13.4877 19.5839C13.4795 19.742 13.4628 19.8997 13.4217 20.0477L15.445 21.0884C15.5261 21.1343 15.6167 21.1558 15.6999 21.1601C15.8164 21.1662 15.9347 21.1391 16.0464 21.0781C16.2272 20.9708 16.3459 20.7767 16.3568 20.5687L16.7711 12.6629C16.782 12.4548 16.6843 12.2494 16.5157 12.1238Z" />
    <path d="M10.2686 21.2928L2.3628 20.8785C1.33089 20.8244 0.534379 19.9407 0.588503 18.9079L0.915603 12.6665C0.969727 11.6337 1.85425 10.8381 2.88616 10.8922L10.792 11.3065C11.8239 11.3606 12.6204 12.2443 12.5663 13.2771L12.2392 19.5185C12.1851 20.5512 11.3005 21.3469 10.2686 21.2928Z" />
    <path d="M20.0514 1.77821L12.9778 1.4075C12.1747 1.36541 11.4872 1.98445 11.4451 2.78751L11.2489 6.53237C11.2068 7.33544 11.8258 8.02294 12.6289 8.06503L13.6691 8.11955L13.571 9.99198C13.5575 10.2491 13.7035 10.4888 13.9383 10.5945C14.01 10.6267 14.0867 10.6449 14.1624 10.6488C14.3339 10.6578 14.5057 10.5959 14.6332 10.4707L16.8564 8.28659L19.7025 8.43574C20.5056 8.47783 21.1931 7.8588 21.2352 7.05573L21.4314 3.31087C21.4735 2.50781 20.8545 1.8203 20.0514 1.77821ZM14.227 5.43673C13.8824 5.41868 13.6175 5.12441 13.6355 4.77988C13.6536 4.43535 13.9479 4.17039 14.2924 4.18845C14.6369 4.2065 14.9019 4.50077 14.8838 4.8453C14.8658 5.18983 14.5715 5.45479 14.227 5.43673ZM16.3074 5.54577C15.9629 5.52771 15.6979 5.23344 15.716 4.88891C15.7341 4.54438 16.0283 4.27942 16.3729 4.29748C16.7174 4.31553 16.9823 4.6098 16.9643 4.95433C16.9462 5.29886 16.652 5.56382 16.3074 5.54577ZM18.3879 5.6548C18.0434 5.63674 17.7784 5.34247 17.7965 4.99795C17.8145 4.65342 18.1088 4.38846 18.4533 4.40651C18.7979 4.42457 19.0628 4.71884 19.0448 5.06337C19.0267 5.40789 18.7324 5.67285 18.3879 5.6548Z" />
</svg>
