<svg xmlns="http://www.w3.org/2000/svg" viewBox="0 0 55 56" fill="none">
  <rect y="0.746094" width="55" height="55" rx="27.5" fill="#43C560"/>
  <path d="M27.8519 17.7461C21.861 17.7461 17 22.6071 17 28.598C17 30.997 17.7765 33.2065 19.0896 35.0057L17.707 39.0965L22.0188 37.7518C23.7043 38.825 25.7055 39.45 27.8519 39.45C33.8429 39.45 38.7039 34.589 38.7039 28.598C38.7039 22.6071 33.8429 17.7461 27.8519 17.7461ZM32.8202 34.4186C30.8506 35.2077 28.5022 34.4438 25.9328 32.4931C23.3634 30.5424 21.6716 27.7963 21.5579 25.7572C21.4443 23.7181 23.1046 22.6891 24.0074 22.6954C24.9101 22.7018 25.9012 25.5868 25.9139 26.0287C25.9265 26.4769 24.8091 27.2723 24.7649 27.6511C24.7207 28.0299 26.2863 29.8985 26.9492 30.4035C27.6057 30.9023 28.963 31.8618 29.6638 31.7734C30.3582 31.6788 30.819 30.2836 31.2609 30.1952C31.7028 30.1068 34.1144 31.3063 34.3543 31.6156C34.5942 31.9313 34.5689 33.7241 32.8202 34.4186Z" fill="white"/>
</svg>
