<svg xmlns="http://www.w3.org/2000/svg" viewBox="0 0 16 18" >
  <path d="M3.00061 0.187134C1.62642 0.187134 0.50061 1.30806 0.50061 2.68225V15.1859C0.50061 16.5601 1.62642 17.6859 3.00061 17.6859H12.9982C14.3724 17.6859 15.4994 16.5601 15.4994 15.1859V5.18347C15.4994 4.41768 15.1962 3.68517 14.6547 3.14368L12.5416 1.03064C12.0001 0.489143 11.264 0.187134 10.4982 0.187134H3.00061ZM4.26526 7.68347H11.7347C11.8168 7.68379 11.898 7.70028 11.9737 7.73198C12.0494 7.76369 12.1182 7.80999 12.176 7.86825C12.2338 7.92652 12.2795 7.9956 12.3107 8.07155C12.3418 8.1475 12.3576 8.22884 12.3573 8.31091C12.357 8.47604 12.2913 8.63433 12.1747 8.7512C12.058 8.86808 11.8999 8.93405 11.7347 8.93469H4.26526C4.09992 8.93437 3.94145 8.86855 3.82454 8.75163C3.70763 8.63472 3.6418 8.47625 3.64148 8.31091C3.64116 8.22873 3.65705 8.1473 3.68824 8.07127C3.71943 7.99524 3.7653 7.9261 3.82324 7.86782C3.88118 7.80954 3.95005 7.76326 4.02589 7.73163C4.10174 7.7 4.18308 7.68363 4.26526 7.68347ZM4.26526 11.4347H9.24695C9.32913 11.4342 9.41059 11.4499 9.48669 11.481C9.56278 11.512 9.632 11.5578 9.6904 11.6156C9.74879 11.6734 9.79521 11.7422 9.82699 11.818C9.85877 11.8938 9.87529 11.9751 9.87561 12.0573C9.87593 12.1398 9.85989 12.2217 9.82839 12.298C9.7969 12.3744 9.75058 12.4437 9.69213 12.5021C9.63367 12.5604 9.56423 12.6066 9.48782 12.6379C9.4114 12.6693 9.32954 12.6852 9.24695 12.6847H4.26526C4.18308 12.6845 4.10174 12.6682 4.02589 12.6365C3.95004 12.6049 3.88118 12.5586 3.82324 12.5003C3.7653 12.4421 3.71943 12.3729 3.68824 12.2969C3.65705 12.2209 3.64116 12.1394 3.64148 12.0573C3.64212 11.8921 3.70809 11.734 3.82497 11.6173C3.94184 11.5007 4.10013 11.435 4.26526 11.4347Z" />
</svg>
