<svg xmlns="http://www.w3.org/2000/svg" viewBox="0 0 23 40" fill="none">
  <path opacity="0.15" fill-rule="evenodd" clip-rule="evenodd" d="M12.3704 5.48148V0.888889C12.3704 0.518519 12.2963 0.37037 12.1481 0.222222C12 0.0740741 11.7778 0 11.4815 0C11.1852 0 10.963 0.0740741 10.8148 0.222222C10.6667 0.37037 10.5926 0.518519 10.5926 0.888889V5.48148L9.77778 5.62963C4.2963 6.44444 0 11.3333 0 17.2593V28.1481C0 34.8148 5.11111 40 11.4815 40C17.8519 40 22.963 34.8148 22.963 28.1481V17.2593C22.963 11.3333 18.6667 6.44444 13.1111 5.62963L12.3704 5.48148ZM1.7037 17.2593C1.7037 11.6296 6 7.18518 11.4815 7.18518C16.963 7.18518 21.2593 11.6296 21.2593 17.2593V28.5185C21.2593 34.1481 16.963 38.5926 11.4815 38.5926C6 38.5926 1.7037 34.1481 1.7037 28.5185V17.2593Z" fill="#303030"/>
  <path opacity="1" d="M11.4796 16.8147C10.1463 16.8147 9.03516 15.7036 9.03516 14.3702C9.03516 13.0369 10.1463 11.9258 11.4796 11.9258C12.8129 11.9258 13.924 13.0369 13.924 14.3702C13.924 15.7036 12.8129 16.8147 11.4796 16.8147ZM11.4796 13.0369C10.7389 13.0369 10.1463 13.6295 10.1463 14.3702C10.1463 15.111 10.7389 15.7036 11.4796 15.7036C12.2203 15.7036 12.8129 15.111 12.8129 14.3702C12.8129 13.6295 12.2203 13.0369 11.4796 13.0369Z" fill="#303030"/>
</svg>
