<svg viewBox="0 0 13 13" fill="none" xmlns="http://www.w3.org/2000/svg">
  <path fill-rule="evenodd" clip-rule="evenodd" d="M12.2839 10.8966C11.9135 12.0222 10.4624 12.5835 9.4256 12.4899C8.00964 12.3619 6.46888 11.6109 5.29931 10.7837C3.58016 9.56776 1.9698 7.68684 1.03142 5.6909C0.36824 4.28054 0.219446 2.5465 1.20582 1.26094C1.57061 0.785752 1.965 0.531965 2.55778 0.502366C3.38016 0.462367 3.49536 0.932836 3.77775 1.66562C3.98815 2.2136 4.26894 2.77259 4.42573 3.34057C4.71932 4.40054 3.69295 4.44484 3.56336 5.31122C3.48256 5.85761 4.14494 6.59034 4.44413 6.97993C5.03052 7.74311 5.7353 8.40135 6.53048 8.90214C6.98566 9.18933 7.72084 9.70686 8.24243 9.42127C9.04561 8.98128 8.96961 7.62698 10.0928 8.08537C10.6744 8.32216 11.2375 8.66388 11.7927 8.96308C12.6511 9.42466 12.6111 9.90304 12.2839 10.8966C12.5287 10.1542 12.0391 11.639 12.2839 10.8966Z" fill="#393838"/>
</svg>
