<svg xmlns="http://www.w3.org/2000/svg" viewBox="0 0 151 150" fill="none">
  <g clip-path="url(#clip0_249_1053)">
    <path d="M132.909 21.2159C132.909 24.4432 130.295 27.0568 127.068 27.0568C123.841 27.0568 121.227 24.4432 121.227 21.2159C121.227 17.9886 123.841 15.375 127.068 15.375C130.295 15.375 132.909 17.9886 132.909 21.2159Z" fill="#E2E2E2"/>
    <path d="M115.591 21.2159C115.591 24.4432 112.977 27.0568 109.75 27.0568C106.523 27.0568 103.909 24.4432 103.909 21.2159C103.909 17.9886 106.523 15.375 109.75 15.375C112.977 15.375 115.591 17.9886 115.591 21.2159Z" fill="#E2E2E2"/>
    <path d="M98.2727 21.2159C98.2727 24.4432 95.6591 27.0568 92.4318 27.0568C89.2045 27.0568 86.5909 24.4432 86.5909 21.2159C86.5909 17.9886 89.2045 15.375 92.4318 15.375C95.6591 15.375 98.2727 17.9886 98.2727 21.2159Z" fill="#E2E2E2"/>
    <path d="M80.9545 21.2159C80.9545 24.4432 78.3409 27.0568 75.1136 27.0568C71.8863 27.0568 69.2727 24.4432 69.2727 21.2159C69.2727 17.9886 71.8863 15.375 75.1136 15.375C78.3409 15.375 80.9545 17.9886 80.9545 21.2159Z" fill="#E2E2E2"/>
    <path d="M63.6363 21.2159C63.6363 24.4432 61.0227 27.0568 57.7954 27.0568C54.5682 27.0568 51.9545 24.4432 51.9545 21.2159C51.9545 17.9886 54.5682 15.375 57.7954 15.375C61.0227 15.375 63.6363 17.9886 63.6363 21.2159Z" fill="#E2E2E2"/>
    <path d="M46.3182 21.2159C46.3182 24.4432 43.7045 27.0568 40.4773 27.0568C37.25 27.0568 34.6364 24.4432 34.6364 21.2159C34.6364 17.9886 37.25 15.375 40.4773 15.375C43.7045 15.375 46.3182 17.9886 46.3182 21.2159Z" fill="#E2E2E2"/>
    <path d="M29 21.2159C29 24.4432 26.3864 27.0568 23.1591 27.0568C19.9318 27.0568 17.3182 24.4432 17.3182 21.2159C17.3182 17.9886 19.9318 15.375 23.1591 15.375C26.3864 15.375 29 17.9886 29 21.2159Z" fill="#E2E2E2"/>
    <path d="M11.6932 21.2159C11.6932 24.4432 9.07954 27.0568 5.85227 27.0568C2.625 27.0568 0 24.4432 0 21.2159C0 17.9886 2.61364 15.375 5.84091 15.375C9.06818 15.375 11.6818 17.9886 11.6818 21.2159H11.6932Z" fill="#E2E2E2"/>
    <path d="M150.227 21.2159C150.227 24.4432 147.614 27.0568 144.386 27.0568C141.159 27.0568 138.545 24.4432 138.545 21.2159C138.545 17.9886 141.159 15.375 144.386 15.375C147.614 15.375 150.227 17.9886 150.227 21.2159Z" fill="#E2E2E2"/>
    <path d="M132.909 36.5796C132.909 39.8068 130.295 42.4205 127.068 42.4205C123.841 42.4205 121.227 39.8068 121.227 36.5796C121.227 33.3523 123.841 30.7386 127.068 30.7386C130.295 30.7386 132.909 33.3523 132.909 36.5796Z" fill="#E2E2E2"/>
    <path d="M109.75 42.4205C112.976 42.4205 115.591 39.8054 115.591 36.5796C115.591 33.3537 112.976 30.7386 109.75 30.7386C106.524 30.7386 103.909 33.3537 103.909 36.5796C103.909 39.8054 106.524 42.4205 109.75 42.4205Z" fill="#E2E2E2"/>
    <path d="M92.4318 42.4205C95.6577 42.4205 98.2727 39.8054 98.2727 36.5796C98.2727 33.3537 95.6577 30.7386 92.4318 30.7386C89.206 30.7386 86.5909 33.3537 86.5909 36.5796C86.5909 39.8054 89.206 42.4205 92.4318 42.4205Z" fill="#E2E2E2"/>
    <path d="M75.1136 42.4205C78.3395 42.4205 80.9545 39.8054 80.9545 36.5796C80.9545 33.3537 78.3395 30.7386 75.1136 30.7386C71.8878 30.7386 69.2727 33.3537 69.2727 36.5796C69.2727 39.8054 71.8878 42.4205 75.1136 42.4205Z" fill="#E2E2E2"/>
    <path d="M57.7954 42.4205C61.0213 42.4205 63.6363 39.8054 63.6363 36.5796C63.6363 33.3537 61.0213 30.7386 57.7954 30.7386C54.5696 30.7386 51.9545 33.3537 51.9545 36.5796C51.9545 39.8054 54.5696 42.4205 57.7954 42.4205Z" fill="#E2E2E2"/>
    <path d="M40.4773 42.4205C43.7031 42.4205 46.3182 39.8054 46.3182 36.5796C46.3182 33.3537 43.7031 30.7386 40.4773 30.7386C37.2514 30.7386 34.6364 33.3537 34.6364 36.5796C34.6364 39.8054 37.2514 42.4205 40.4773 42.4205Z" fill="#E2E2E2"/>
    <path d="M23.1591 42.4205C26.3849 42.4205 29 39.8054 29 36.5796C29 33.3537 26.3849 30.7386 23.1591 30.7386C19.9332 30.7386 17.3182 33.3537 17.3182 36.5796C17.3182 39.8054 19.9332 42.4205 23.1591 42.4205Z" fill="#E2E2E2"/>
    <path d="M5.84091 42.4205C9.06675 42.4205 11.6818 39.8054 11.6818 36.5796C11.6818 33.3537 9.06675 30.7386 5.84091 30.7386C2.61506 30.7386 0 33.3537 0 36.5796C0 39.8054 2.61506 42.4205 5.84091 42.4205Z" fill="#E2E2E2"/>
    <path d="M150.227 36.5796C150.227 39.8068 147.614 42.4205 144.386 42.4205C141.159 42.4205 138.545 39.8068 138.545 36.5796C138.545 33.3523 141.159 30.7386 144.386 30.7386C147.614 30.7386 150.227 33.3523 150.227 36.5796Z" fill="#E2E2E2"/>
    <path d="M132.909 51.9432C132.909 55.1705 130.295 57.7841 127.068 57.7841C123.841 57.7841 121.227 55.1705 121.227 51.9432C121.227 48.7159 123.841 46.1023 127.068 46.1023C130.295 46.1023 132.909 48.7159 132.909 51.9432Z" fill="#E2E2E2"/>
    <path d="M109.75 57.7841C112.976 57.7841 115.591 55.169 115.591 51.9432C115.591 48.7174 112.976 46.1023 109.75 46.1023C106.524 46.1023 103.909 48.7174 103.909 51.9432C103.909 55.169 106.524 57.7841 109.75 57.7841Z" fill="#E2E2E2"/>
    <path d="M92.4318 57.7841C95.6577 57.7841 98.2727 55.169 98.2727 51.9432C98.2727 48.7174 95.6577 46.1023 92.4318 46.1023C89.206 46.1023 86.5909 48.7174 86.5909 51.9432C86.5909 55.169 89.206 57.7841 92.4318 57.7841Z" fill="#E2E2E2"/>
    <path d="M75.1136 57.7841C78.3395 57.7841 80.9545 55.169 80.9545 51.9432C80.9545 48.7174 78.3395 46.1023 75.1136 46.1023C71.8878 46.1023 69.2727 48.7174 69.2727 51.9432C69.2727 55.169 71.8878 57.7841 75.1136 57.7841Z" fill="#E2E2E2"/>
    <path d="M57.7954 57.7841C61.0213 57.7841 63.6363 55.169 63.6363 51.9432C63.6363 48.7174 61.0213 46.1023 57.7954 46.1023C54.5696 46.1023 51.9545 48.7174 51.9545 51.9432C51.9545 55.169 54.5696 57.7841 57.7954 57.7841Z" fill="#E2E2E2"/>
    <path d="M40.4773 57.7841C43.7031 57.7841 46.3182 55.169 46.3182 51.9432C46.3182 48.7174 43.7031 46.1023 40.4773 46.1023C37.2514 46.1023 34.6364 48.7174 34.6364 51.9432C34.6364 55.169 37.2514 57.7841 40.4773 57.7841Z" fill="#E2E2E2"/>
    <path d="M23.1591 57.7841C26.3849 57.7841 29 55.169 29 51.9432C29 48.7174 26.3849 46.1023 23.1591 46.1023C19.9332 46.1023 17.3182 48.7174 17.3182 51.9432C17.3182 55.169 19.9332 57.7841 23.1591 57.7841Z" fill="#E2E2E2"/>
    <path d="M5.84091 57.7841C9.06675 57.7841 11.6818 55.169 11.6818 51.9432C11.6818 48.7174 9.06675 46.1023 5.84091 46.1023C2.61506 46.1023 0 48.7174 0 51.9432C0 55.169 2.61506 57.7841 5.84091 57.7841Z" fill="#E2E2E2"/>
    <path d="M150.227 51.9432C150.227 55.1705 147.614 57.7841 144.386 57.7841C141.159 57.7841 138.545 55.1705 138.545 51.9432C138.545 48.7159 141.159 46.1023 144.386 46.1023C147.614 46.1023 150.227 48.7159 150.227 51.9432Z" fill="#E2E2E2"/>
    <path d="M132.909 67.3182C132.909 70.5455 130.295 73.1591 127.068 73.1591C123.841 73.1591 121.227 70.5455 121.227 67.3182C121.227 64.0909 123.841 61.4773 127.068 61.4773C130.295 61.4773 132.909 64.0909 132.909 67.3182Z" fill="#E2E2E2"/>
    <path d="M109.75 73.1591C112.976 73.1591 115.591 70.5441 115.591 67.3182C115.591 64.0924 112.976 61.4773 109.75 61.4773C106.524 61.4773 103.909 64.0924 103.909 67.3182C103.909 70.5441 106.524 73.1591 109.75 73.1591Z" fill="#E2E2E2"/>
    <path d="M92.4318 73.1591C95.6577 73.1591 98.2727 70.5441 98.2727 67.3182C98.2727 64.0924 95.6577 61.4773 92.4318 61.4773C89.206 61.4773 86.5909 64.0924 86.5909 67.3182C86.5909 70.5441 89.206 73.1591 92.4318 73.1591Z" fill="#E2E2E2"/>
    <path d="M75.1136 73.1591C78.3395 73.1591 80.9545 70.5441 80.9545 67.3182C80.9545 64.0924 78.3395 61.4773 75.1136 61.4773C71.8878 61.4773 69.2727 64.0924 69.2727 67.3182C69.2727 70.5441 71.8878 73.1591 75.1136 73.1591Z" fill="#E2E2E2"/>
    <path d="M57.7954 73.1591C61.0213 73.1591 63.6363 70.5441 63.6363 67.3182C63.6363 64.0924 61.0213 61.4773 57.7954 61.4773C54.5696 61.4773 51.9545 64.0924 51.9545 67.3182C51.9545 70.5441 54.5696 73.1591 57.7954 73.1591Z" fill="#E2E2E2"/>
    <path d="M40.4773 73.1591C43.7031 73.1591 46.3182 70.5441 46.3182 67.3182C46.3182 64.0924 43.7031 61.4773 40.4773 61.4773C37.2514 61.4773 34.6364 64.0924 34.6364 67.3182C34.6364 70.5441 37.2514 73.1591 40.4773 73.1591Z" fill="#E2E2E2"/>
    <path d="M23.1591 73.1591C26.3849 73.1591 29 70.5441 29 67.3182C29 64.0924 26.3849 61.4773 23.1591 61.4773C19.9332 61.4773 17.3182 64.0924 17.3182 67.3182C17.3182 70.5441 19.9332 73.1591 23.1591 73.1591Z" fill="#E2E2E2"/>
    <path d="M5.84091 73.1591C9.06675 73.1591 11.6818 70.5441 11.6818 67.3182C11.6818 64.0924 9.06675 61.4773 5.84091 61.4773C2.61506 61.4773 0 64.0924 0 67.3182C0 70.5441 2.61506 73.1591 5.84091 73.1591Z" fill="#E2E2E2"/>
    <path d="M150.227 67.3182C150.227 70.5455 147.614 73.1591 144.386 73.1591C141.159 73.1591 138.545 70.5455 138.545 67.3182C138.545 64.0909 141.159 61.4773 144.386 61.4773C147.614 61.4773 150.227 64.0909 150.227 67.3182Z" fill="#E2E2E2"/>
    <path d="M132.909 82.6819C132.909 85.9091 130.295 88.5228 127.068 88.5228C123.841 88.5228 121.227 85.9091 121.227 82.6819C121.227 79.4546 123.841 76.8409 127.068 76.8409C130.295 76.8409 132.909 79.4546 132.909 82.6819Z" fill="#E2E2E2"/>
    <path d="M109.75 88.5228C112.976 88.5228 115.591 85.9077 115.591 82.6819C115.591 79.456 112.976 76.8409 109.75 76.8409C106.524 76.8409 103.909 79.456 103.909 82.6819C103.909 85.9077 106.524 88.5228 109.75 88.5228Z" fill="#E2E2E2"/>
    <path d="M92.4318 88.5228C95.6577 88.5228 98.2727 85.9077 98.2727 82.6819C98.2727 79.456 95.6577 76.8409 92.4318 76.8409C89.206 76.8409 86.5909 79.456 86.5909 82.6819C86.5909 85.9077 89.206 88.5228 92.4318 88.5228Z" fill="#E2E2E2"/>
    <path d="M75.1136 88.5228C78.3395 88.5228 80.9545 85.9077 80.9545 82.6819C80.9545 79.456 78.3395 76.8409 75.1136 76.8409C71.8878 76.8409 69.2727 79.456 69.2727 82.6819C69.2727 85.9077 71.8878 88.5228 75.1136 88.5228Z" fill="#E2E2E2"/>
    <path d="M57.7954 88.5228C61.0213 88.5228 63.6363 85.9077 63.6363 82.6819C63.6363 79.456 61.0213 76.8409 57.7954 76.8409C54.5696 76.8409 51.9545 79.456 51.9545 82.6819C51.9545 85.9077 54.5696 88.5228 57.7954 88.5228Z" fill="#E2E2E2"/>
    <path d="M40.4773 88.5228C43.7031 88.5228 46.3182 85.9077 46.3182 82.6819C46.3182 79.456 43.7031 76.8409 40.4773 76.8409C37.2514 76.8409 34.6364 79.456 34.6364 82.6819C34.6364 85.9077 37.2514 88.5228 40.4773 88.5228Z" fill="#E2E2E2"/>
    <path d="M23.1591 88.5228C26.3849 88.5228 29 85.9077 29 82.6819C29 79.456 26.3849 76.8409 23.1591 76.8409C19.9332 76.8409 17.3182 79.456 17.3182 82.6819C17.3182 85.9077 19.9332 88.5228 23.1591 88.5228Z" fill="#E2E2E2"/>
    <path d="M5.84091 88.5228C9.06675 88.5228 11.6818 85.9077 11.6818 82.6819C11.6818 79.456 9.06675 76.8409 5.84091 76.8409C2.61506 76.8409 0 79.456 0 82.6819C0 85.9077 2.61506 88.5228 5.84091 88.5228Z" fill="#E2E2E2"/>
    <path d="M150.227 82.6819C150.227 85.9091 147.614 88.5228 144.386 88.5228C141.159 88.5228 138.545 85.9091 138.545 82.6819C138.545 79.4546 141.159 76.8409 144.386 76.8409C147.614 76.8409 150.227 79.4546 150.227 82.6819Z" fill="#E2E2E2"/>
    <path d="M132.909 98.0569C132.909 101.284 130.295 103.898 127.068 103.898C123.841 103.898 121.227 101.284 121.227 98.0569C121.227 94.8296 123.841 92.2159 127.068 92.2159C130.295 92.2159 132.909 94.8296 132.909 98.0569Z" fill="#E2E2E2"/>
    <path d="M115.591 98.0569C115.591 101.284 112.977 103.898 109.75 103.898C106.523 103.898 103.909 101.284 103.909 98.0569C103.909 94.8296 106.523 92.2159 109.75 92.2159C112.977 92.2159 115.591 94.8296 115.591 98.0569Z" fill="#E2E2E2"/>
    <path d="M98.2727 98.0569C98.2727 101.284 95.6591 103.898 92.4318 103.898C89.2045 103.898 86.5909 101.284 86.5909 98.0569C86.5909 94.8296 89.2045 92.2159 92.4318 92.2159C95.6591 92.2159 98.2727 94.8296 98.2727 98.0569Z" fill="#E2E2E2"/>
    <path d="M80.9545 98.0569C80.9545 101.284 78.3409 103.898 75.1136 103.898C71.8863 103.898 69.2727 101.284 69.2727 98.0569C69.2727 94.8296 71.8863 92.2159 75.1136 92.2159C78.3409 92.2159 80.9545 94.8296 80.9545 98.0569Z" fill="#E2E2E2"/>
    <path d="M63.6363 98.0569C63.6363 101.284 61.0227 103.898 57.7954 103.898C54.5682 103.898 51.9545 101.284 51.9545 98.0569C51.9545 94.8296 54.5682 92.2159 57.7954 92.2159C61.0227 92.2159 63.6363 94.8296 63.6363 98.0569Z" fill="#E2E2E2"/>
    <path d="M46.3182 98.0569C46.3182 101.284 43.7045 103.898 40.4773 103.898C37.25 103.898 34.6364 101.284 34.6364 98.0569C34.6364 94.8296 37.25 92.2159 40.4773 92.2159C43.7045 92.2159 46.3182 94.8296 46.3182 98.0569Z" fill="#E2E2E2"/>
    <path d="M29 98.0569C29 101.284 26.3864 103.898 23.1591 103.898C19.9318 103.898 17.3182 101.284 17.3182 98.0569C17.3182 94.8296 19.9318 92.2159 23.1591 92.2159C26.3864 92.2159 29 94.8296 29 98.0569Z" fill="#E2E2E2"/>
    <path d="M11.6932 98.0569C11.6932 101.284 9.07953 103.898 5.85226 103.898C2.62499 103.898 0.0113525 101.284 0.0113525 98.0569C0.0113525 94.8296 2.62499 92.2159 5.85226 92.2159C9.07953 92.2159 11.6932 94.8296 11.6932 98.0569Z" fill="#E2E2E2"/>
    <path d="M150.227 98.0569C150.227 101.284 147.614 103.898 144.386 103.898C141.159 103.898 138.545 101.284 138.545 98.0569C138.545 94.8296 141.159 92.2159 144.386 92.2159C147.614 92.2159 150.227 94.8296 150.227 98.0569Z" fill="#E2E2E2"/>
    <path d="M132.909 113.42C132.909 116.648 130.295 119.261 127.068 119.261C123.841 119.261 121.227 116.648 121.227 113.42C121.227 110.193 123.841 107.58 127.068 107.58C130.295 107.58 132.909 110.193 132.909 113.42Z" fill="#E2E2E2"/>
    <path d="M115.591 113.42C115.591 116.648 112.977 119.261 109.75 119.261C106.523 119.261 103.909 116.648 103.909 113.42C103.909 110.193 106.523 107.58 109.75 107.58C112.977 107.58 115.591 110.193 115.591 113.42Z" fill="#E2E2E2"/>
    <path d="M98.2727 113.42C98.2727 116.648 95.6591 119.261 92.4318 119.261C89.2045 119.261 86.5909 116.648 86.5909 113.42C86.5909 110.193 89.2045 107.58 92.4318 107.58C95.6591 107.58 98.2727 110.193 98.2727 113.42Z" fill="#E2E2E2"/>
    <path d="M80.9545 113.42C80.9545 116.648 78.3409 119.261 75.1136 119.261C71.8863 119.261 69.2727 116.648 69.2727 113.42C69.2727 110.193 71.8863 107.58 75.1136 107.58C78.3409 107.58 80.9545 110.193 80.9545 113.42Z" fill="#E2E2E2"/>
    <path d="M63.6363 113.42C63.6363 116.648 61.0227 119.261 57.7954 119.261C54.5682 119.261 51.9545 116.648 51.9545 113.42C51.9545 110.193 54.5682 107.58 57.7954 107.58C61.0227 107.58 63.6363 110.193 63.6363 113.42Z" fill="#E2E2E2"/>
    <path d="M46.3182 113.42C46.3182 116.648 43.7045 119.261 40.4773 119.261C37.25 119.261 34.6364 116.648 34.6364 113.42C34.6364 110.193 37.25 107.58 40.4773 107.58C43.7045 107.58 46.3182 110.193 46.3182 113.42Z" fill="#E2E2E2"/>
    <path d="M29 113.42C29 116.648 26.3864 119.261 23.1591 119.261C19.9318 119.261 17.3182 116.648 17.3182 113.42C17.3182 110.193 19.9318 107.58 23.1591 107.58C26.3864 107.58 29 110.193 29 113.42Z" fill="#E2E2E2"/>
    <path d="M11.6932 113.42C11.6932 116.648 9.07953 119.261 5.85226 119.261C2.62499 119.261 0.0113525 116.648 0.0113525 113.42C0.0113525 110.193 2.62499 107.58 5.85226 107.58C9.07953 107.58 11.6932 110.193 11.6932 113.42Z" fill="#E2E2E2"/>
    <path d="M150.227 113.42C150.227 116.648 147.614 119.261 144.386 119.261C141.159 119.261 138.545 116.648 138.545 113.42C138.545 110.193 141.159 107.58 144.386 107.58C147.614 107.58 150.227 110.193 150.227 113.42Z" fill="#E2E2E2"/>
    <path d="M132.909 128.784C132.909 132.011 130.295 134.625 127.068 134.625C123.841 134.625 121.227 132.011 121.227 128.784C121.227 125.557 123.841 122.943 127.068 122.943C130.295 122.943 132.909 125.557 132.909 128.784Z" fill="#9F8576"/>
    <path d="M109.75 134.625C112.976 134.625 115.591 132.01 115.591 128.784C115.591 125.558 112.976 122.943 109.75 122.943C106.524 122.943 103.909 125.558 103.909 128.784C103.909 132.01 106.524 134.625 109.75 134.625Z" fill="#E2E2E2"/>
    <path d="M92.4318 134.625C95.6577 134.625 98.2727 132.01 98.2727 128.784C98.2727 125.558 95.6577 122.943 92.4318 122.943C89.206 122.943 86.5909 125.558 86.5909 128.784C86.5909 132.01 89.206 134.625 92.4318 134.625Z" fill="#E2E2E2"/>
    <path d="M75.1136 134.625C78.3395 134.625 80.9545 132.01 80.9545 128.784C80.9545 125.558 78.3395 122.943 75.1136 122.943C71.8878 122.943 69.2727 125.558 69.2727 128.784C69.2727 132.01 71.8878 134.625 75.1136 134.625Z" fill="#E2E2E2"/>
    <path d="M57.7954 134.625C61.0213 134.625 63.6363 132.01 63.6363 128.784C63.6363 125.558 61.0213 122.943 57.7954 122.943C54.5696 122.943 51.9545 125.558 51.9545 128.784C51.9545 132.01 54.5696 134.625 57.7954 134.625Z" fill="#E2E2E2"/>
    <path d="M40.4773 134.625C43.7031 134.625 46.3182 132.01 46.3182 128.784C46.3182 125.558 43.7031 122.943 40.4773 122.943C37.2514 122.943 34.6364 125.558 34.6364 128.784C34.6364 132.01 37.2514 134.625 40.4773 134.625Z" fill="#E2E2E2"/>
    <path d="M23.1591 134.625C26.3849 134.625 29 132.01 29 128.784C29 125.558 26.3849 122.943 23.1591 122.943C19.9332 122.943 17.3182 125.558 17.3182 128.784C17.3182 132.01 19.9332 134.625 23.1591 134.625Z" fill="#E2E2E2"/>
    <path d="M5.84091 134.625C9.06675 134.625 11.6818 132.01 11.6818 128.784C11.6818 125.558 9.06675 122.943 5.84091 122.943C2.61506 122.943 0 125.558 0 128.784C0 132.01 2.61506 134.625 5.84091 134.625Z" fill="#E2E2E2"/>
    <path d="M150.227 128.784C150.227 132.011 147.614 134.625 144.386 134.625C141.159 134.625 138.545 132.011 138.545 128.784C138.545 125.557 141.159 122.943 144.386 122.943C147.614 122.943 150.227 125.557 150.227 128.784Z" fill="#9F8576"/>
    <path d="M132.909 5.84091C132.909 9.06818 130.295 11.6818 127.068 11.6818C123.841 11.6818 121.227 9.06818 121.227 5.84091C121.227 2.61364 123.841 0 127.068 0C130.295 0 132.909 2.61364 132.909 5.84091Z" fill="#E2E2E2"/>
    <path d="M115.591 5.84091C115.591 9.06818 112.977 11.6818 109.75 11.6818C106.523 11.6818 103.909 9.06818 103.909 5.84091C103.909 2.61364 106.523 0 109.75 0C112.977 0 115.591 2.61364 115.591 5.84091Z" fill="#E2E2E2"/>
    <path d="M98.2727 5.84091C98.2727 9.06818 95.6591 11.6818 92.4318 11.6818C89.2045 11.6818 86.5909 9.06818 86.5909 5.84091C86.5909 2.61364 89.2045 0 92.4318 0C95.6591 0 98.2727 2.61364 98.2727 5.84091Z" fill="#E2E2E2"/>
    <path d="M80.9545 5.84091C80.9545 9.06818 78.3409 11.6818 75.1136 11.6818C71.8863 11.6818 69.2727 9.06818 69.2727 5.84091C69.2727 2.61364 71.8863 0 75.1136 0C78.3409 0 80.9545 2.61364 80.9545 5.84091Z" fill="#E2E2E2"/>
    <path d="M63.6363 5.84091C63.6363 9.06818 61.0227 11.6818 57.7954 11.6818C54.5682 11.6818 51.9545 9.06818 51.9545 5.84091C51.9545 2.61364 54.5682 0 57.7954 0C61.0227 0 63.6363 2.61364 63.6363 5.84091Z" fill="#E2E2E2"/>
    <path d="M46.3182 5.84091C46.3182 9.06818 43.7045 11.6818 40.4773 11.6818C37.25 11.6818 34.6364 9.06818 34.6364 5.84091C34.6364 2.61364 37.25 0 40.4773 0C43.7045 0 46.3182 2.61364 46.3182 5.84091Z" fill="#E2E2E2"/>
    <path d="M29 5.84091C29 9.06818 26.3864 11.6818 23.1591 11.6818C19.9318 11.6818 17.3182 9.06818 17.3182 5.84091C17.3182 2.61364 19.9318 0 23.1591 0C26.3864 0 29 2.61364 29 5.84091Z" fill="#E2E2E2"/>
    <path d="M11.6932 5.84091C11.6932 9.06818 9.07954 11.6818 5.85227 11.6818C2.625 11.6818 0 9.06818 0 5.84091C0 2.61364 2.61364 0 5.84091 0C9.06818 0 11.6818 2.61364 11.6818 5.84091H11.6932Z" fill="#E2E2E2"/>
    <path d="M150.227 5.84091C150.227 9.06818 147.614 11.6818 144.386 11.6818C141.159 11.6818 138.545 9.06818 138.545 5.84091C138.545 2.61364 141.159 0 144.386 0C147.614 0 150.227 2.61364 150.227 5.84091Z" fill="#E2E2E2"/>
    <path d="M132.909 144.159C132.909 147.386 130.295 150 127.068 150C123.841 150 121.227 147.386 121.227 144.159C121.227 140.932 123.841 138.318 127.068 138.318C130.295 138.318 132.909 140.932 132.909 144.159Z" fill="#9F8576"/>
    <path d="M109.75 150C112.976 150 115.591 147.385 115.591 144.159C115.591 140.933 112.976 138.318 109.75 138.318C106.524 138.318 103.909 140.933 103.909 144.159C103.909 147.385 106.524 150 109.75 150Z" fill="#E2E2E2"/>
    <path d="M92.4318 150C95.6577 150 98.2727 147.385 98.2727 144.159C98.2727 140.933 95.6577 138.318 92.4318 138.318C89.206 138.318 86.5909 140.933 86.5909 144.159C86.5909 147.385 89.206 150 92.4318 150Z" fill="#E2E2E2"/>
    <path d="M75.1136 150C78.3395 150 80.9545 147.385 80.9545 144.159C80.9545 140.933 78.3395 138.318 75.1136 138.318C71.8878 138.318 69.2727 140.933 69.2727 144.159C69.2727 147.385 71.8878 150 75.1136 150Z" fill="#E2E2E2"/>
    <path d="M57.7954 150C61.0213 150 63.6363 147.385 63.6363 144.159C63.6363 140.933 61.0213 138.318 57.7954 138.318C54.5696 138.318 51.9545 140.933 51.9545 144.159C51.9545 147.385 54.5696 150 57.7954 150Z" fill="#E2E2E2"/>
    <path d="M40.4773 150C43.7031 150 46.3182 147.385 46.3182 144.159C46.3182 140.933 43.7031 138.318 40.4773 138.318C37.2514 138.318 34.6364 140.933 34.6364 144.159C34.6364 147.385 37.2514 150 40.4773 150Z" fill="#E2E2E2"/>
    <path d="M23.1591 150C26.3849 150 29 147.385 29 144.159C29 140.933 26.3849 138.318 23.1591 138.318C19.9332 138.318 17.3182 140.933 17.3182 144.159C17.3182 147.385 19.9332 150 23.1591 150Z" fill="#E2E2E2"/>
    <path d="M5.84091 150C9.06675 150 11.6818 147.385 11.6818 144.159C11.6818 140.933 9.06675 138.318 5.84091 138.318C2.61506 138.318 0 140.933 0 144.159C0 147.385 2.61506 150 5.84091 150Z" fill="#E2E2E2"/>
    <path d="M150.227 144.159C150.227 147.386 147.614 150 144.386 150C141.159 150 138.545 147.386 138.545 144.159C138.545 140.932 141.159 138.318 144.386 138.318C147.614 138.318 150.227 140.932 150.227 144.159Z" fill="#9F8576"/>
  </g>
  <defs>
    <clipPath id="clip0_249_1053">
      <rect width="150.227" height="150" fill="white"/>
    </clipPath>
  </defs>
</svg>
