<svg xmlns="http://www.w3.org/2000/svg" viewBox="0 0 25 14" fill="none">
  <path d="M23.984 12.2404C23.9559 12.181 23.9297 12.1316 23.9053 12.0921C23.5026 11.3801 22.7329 10.5062 21.5968 9.47013L21.5728 9.44641L21.5607 9.43477L21.5486 9.42285H21.5364C21.0208 8.94039 20.6943 8.61599 20.5575 8.44991C20.3073 8.13354 20.2513 7.8133 20.388 7.48882C20.4846 7.24366 20.8475 6.72593 21.4758 5.93491C21.8063 5.51569 22.0681 5.17971 22.2614 4.92657C23.6555 3.10744 24.2599 1.94499 24.0745 1.43876L24.0024 1.32047C23.9541 1.24925 23.8292 1.18409 23.628 1.12467C23.4263 1.06538 23.1685 1.05557 22.8542 1.09509L19.3733 1.11869C19.3169 1.09908 19.2364 1.10091 19.1315 1.12467C19.0267 1.14844 18.9743 1.16037 18.9743 1.16037L18.9137 1.19008L18.8656 1.22577C18.8253 1.24937 18.781 1.29088 18.7326 1.35022C18.6845 1.40934 18.6442 1.47874 18.612 1.55781C18.2331 2.51479 17.8022 3.40453 17.3186 4.22701C17.0205 4.71744 16.7466 5.14248 16.4966 5.50236C16.2468 5.86211 16.0373 6.12717 15.8682 6.29707C15.6989 6.46715 15.5461 6.60339 15.4088 6.70632C15.2718 6.80928 15.1672 6.85279 15.0948 6.83687C15.0222 6.82096 14.9538 6.80517 14.8891 6.78938C14.7763 6.71816 14.6856 6.6213 14.6173 6.49872C14.5486 6.37615 14.5024 6.22187 14.4782 6.036C14.4542 5.85002 14.4399 5.69005 14.4359 5.55554C14.4321 5.42121 14.4338 5.23119 14.442 4.98603C14.4504 4.74075 14.4542 4.5748 14.4542 4.48779C14.4542 4.1872 14.4601 3.86098 14.4721 3.50904C14.4843 3.15709 14.4942 2.87824 14.5024 2.67281C14.5106 2.46717 14.5144 2.2496 14.5144 2.02024C14.5144 1.79087 14.5002 1.61099 14.4721 1.48044C14.4443 1.35005 14.4017 1.22348 14.3455 1.10078C14.289 0.978203 14.2063 0.883382 14.0978 0.816069C13.989 0.748838 13.8538 0.695485 13.6929 0.655845C13.2658 0.560982 12.7219 0.509666 12.061 0.501688C10.5624 0.485898 9.59938 0.580885 9.17231 0.786525C9.0031 0.87341 8.84998 0.992123 8.71307 1.14229C8.56799 1.31635 8.54776 1.41134 8.65249 1.42696C9.13603 1.49806 9.47834 1.66813 9.67981 1.93701L9.75241 2.07949C9.80889 2.18229 9.86528 2.36429 9.92171 2.62523C9.97806 2.88618 10.0144 3.17484 10.0304 3.49104C10.0706 4.06849 10.0706 4.56279 10.0304 4.97398C9.99008 5.38535 9.95198 5.70559 9.91561 5.93495C9.87925 6.16432 9.82489 6.35018 9.75241 6.49249C9.67981 6.63485 9.63151 6.72186 9.60729 6.75344C9.58312 6.78502 9.56297 6.80492 9.54697 6.81273C9.44223 6.85212 9.33331 6.87219 9.22057 6.87219C9.10767 6.87219 8.97076 6.81676 8.80963 6.70599C8.64855 6.59521 8.48138 6.44305 8.3081 6.24925C8.13483 6.05541 7.93942 5.78453 7.72178 5.43658C7.50431 5.08863 7.27867 4.67739 7.04498 4.20287L6.85164 3.85874C6.73078 3.63735 6.56567 3.31499 6.35616 2.89195C6.14652 2.46875 5.96123 2.05938 5.80015 1.66393C5.73576 1.49785 5.63902 1.37141 5.51012 1.2844L5.44962 1.2487C5.4094 1.21713 5.34484 1.18359 5.25628 1.14786C5.16759 1.11217 5.07505 1.08657 4.97827 1.07082L1.66652 1.09442C1.3281 1.09442 1.09848 1.16967 0.977575 1.31997L0.929187 1.39106C0.905014 1.43066 0.892822 1.4939 0.892822 1.58095C0.892822 1.66796 0.916995 1.77475 0.965383 1.90119C1.44884 3.01644 1.97459 4.09201 2.54262 5.12806C3.11066 6.16411 3.60428 6.99868 4.02317 7.63101C4.44215 8.2638 4.86922 8.86102 5.30437 9.42239C5.73952 9.98396 6.02757 10.3438 6.1685 10.5019C6.3096 10.6603 6.42043 10.7788 6.50099 10.8578L6.80321 11.1425C6.99659 11.3324 7.28057 11.5597 7.65527 11.8246C8.03005 12.0897 8.44497 12.3506 8.90023 12.6079C9.35558 12.8647 9.8853 13.0743 10.4897 13.2364C11.094 13.3986 11.6822 13.4638 12.2544 13.4323H13.6444C13.9263 13.4084 14.1398 13.3214 14.285 13.1713L14.3331 13.1118C14.3654 13.0646 14.3957 12.9913 14.4236 12.8926C14.4519 12.7937 14.466 12.6848 14.466 12.5664C14.4577 12.2263 14.4841 11.9199 14.5444 11.6471C14.6046 11.3743 14.6733 11.1687 14.7501 11.0302C14.8268 10.8918 14.9134 10.7751 15.0098 10.6804C15.1064 10.5855 15.1753 10.5281 15.2157 10.5083C15.2558 10.4884 15.2879 10.4749 15.312 10.4668C15.5054 10.4035 15.733 10.4648 15.9951 10.6508C16.257 10.8367 16.5027 11.0662 16.7325 11.3389C16.9622 11.6119 17.2381 11.9182 17.5603 12.2582C17.8828 12.5984 18.1647 12.8512 18.4064 13.0175L18.648 13.1599C18.8094 13.2549 19.0189 13.3419 19.2768 13.421C19.5343 13.5 19.7598 13.5198 19.9535 13.4802L23.0476 13.4329C23.3536 13.4329 23.5917 13.3831 23.7606 13.2845C23.9299 13.1856 24.0304 13.0767 24.0629 12.9582C24.0952 12.8396 24.0969 12.7051 24.069 12.5547C24.0403 12.4046 24.0121 12.2997 23.984 12.2404Z" />
</svg>
