<svg xmlns="http://www.w3.org/2000/svg" viewBox="0 0 31 21" >
  <path fill-rule="evenodd" clip-rule="evenodd" d="M3.85 20.1552C3.32698 20.0004 2.84976 19.7252 2.45862 19.3526C2.06748 18.98 1.77388 18.521 1.60261 18.0144C0.623905 15.3959 0.333919 4.462 2.21883 2.30352C2.84616 1.60136 3.73187 1.16905 4.6837 1.10044C9.74033 0.569667 25.3633 0.640437 27.1576 1.27736C27.6623 1.43719 28.1233 1.70644 28.5063 2.06492C28.8892 2.42341 29.184 2.86185 29.3687 3.34738C30.4381 6.05432 30.4743 15.8913 29.2237 18.4921C28.892 19.1691 28.3366 19.7175 27.6469 20.049C25.762 20.969 6.35112 20.9513 3.85 20.1552ZM11.879 15.0244L20.941 10.4243L11.879 5.78893V15.0244Z" />
</svg>
