<?xml version="1.0" encoding="utf-8"?><svg xmlns="http://www.w3.org/2000/svg" xmlns:xlink="http://www.w3.org/1999/xlink"><symbol viewBox="0 0 18 22" id="calc" xmlns="http://www.w3.org/2000/svg"><path d="M14.257 1.198L4.799.703A3.359 3.359 0 001.26 3.878L.566 17.146a3.36 3.36 0 003.186 3.53l9.458.495a3.352 3.352 0 003.53-3.177l.695-13.268a3.351 3.351 0 00-3.178-3.528zm-8.17 15.705a.74.74 0 01-.786.687l-1.567-.082a.732.732 0 01-.701-.765l.082-1.567a.74.74 0 01.777-.698l1.568.082c.406.022.73.37.71.776l-.083 1.567zm.212-4.051a.758.758 0 01-.787.707l-1.567-.082a.75.75 0 01-.7-.786l.082-1.567a.744.744 0 01.778-.701l1.567.082c.406.021.73.373.71.78l-.083 1.566zm3.998 4.271a.732.732 0 01-.778.688l-1.567-.082a.738.738 0 01-.71-.766l.083-1.566a.747.747 0 01.785-.698l1.568.082a.741.741 0 01.701.776l-.082 1.566zm.212-4.05a.75.75 0 01-.779.708l-1.567-.083a.757.757 0 01-.708-.786l.082-1.567a.75.75 0 01.786-.701l1.567.082a.745.745 0 01.702.779l-.083 1.567zm3.818 4.262a.736.736 0 01-.783.687l-1.566-.082a.736.736 0 01-.706-.766l.082-1.566a.744.744 0 01.783-.698l1.566.082c.406.022.728.37.706.776l-.082 1.567zm.213-4.052a.754.754 0 01-.784.709l-1.567-.083a.754.754 0 01-.705-.786l.083-1.567a.747.747 0 01.782-.701l1.567.082a.749.749 0 01.706.78l-.082 1.566zm.3-5.724a1.489 1.489 0 01-1.572 1.413L4.97 8.537a1.498 1.498 0 01-1.425-1.57l.07-1.345A1.507 1.507 0 015.197 4.2l8.299.435a1.498 1.498 0 011.414 1.58l-.07 1.345z"/></symbol><symbol fill="none" viewBox="0 0 35 51" id="dev" xmlns="http://www.w3.org/2000/svg"><path fill="#B4B4B4" d="M0 0h35v51H0z"/><g clip-path="url(#bclip0_249_665)"><path fill="#fff" d="M-1831-17972H89V80h-1920z"/><path d="M32.103 5.948c-.338 0-.657-.063-.956-.19a2.536 2.536 0 01-1.316-1.316 2.421 2.421 0 01-.19-.957c0-.338.063-.656.19-.952a2.52 2.52 0 01.533-.787c.226-.226.487-.402.783-.529.3-.13.618-.195.956-.195.342 0 .66.065.957.195a2.464 2.464 0 011.316 3.225 2.477 2.477 0 01-.529.783 2.522 2.522 0 01-.787.533c-.296.127-.615.19-.957.19zm0-.592c.347 0 .662-.083.944-.25a1.91 1.91 0 00.673-.677c.17-.285.254-.6.254-.944s-.085-.657-.254-.94a1.866 1.866 0 00-2.56-.676 1.9 1.9 0 00-.677.677c-.167.282-.25.595-.25.94 0 .344.083.658.25.943.169.282.395.508.677.677.285.167.6.25.943.25zm-.863-.762V2.326h1.151a.656.656 0 01.305.076c.11.05.203.13.28.237a.667.667 0 01.118.406.729.729 0 01-.11.406.846.846 0 01-.263.259l.466.884h-.55l-.402-.77h-.495v.77h-.5zm.5-1.143h.465c.068.003.141-.03.22-.097.08-.068.119-.17.119-.309 0-.138-.041-.231-.123-.279a.4.4 0 00-.207-.076h-.474v.761z" fill="#fff"/><path d="M30.233 26.266c0 6.553-1.24 12.36-3.685 16.486-2.414 4.07-5.979 6.491-10.827 6.491-4.847 0-8.413-2.42-10.826-6.491-2.446-4.125-3.686-9.933-3.686-16.486 0-6.554 1.24-12.361 3.686-16.486 2.413-4.07 5.979-6.492 10.826-6.492 4.848 0 8.413 2.421 10.827 6.492 2.445 4.125 3.685 9.932 3.685 16.486z" stroke="#fff" stroke-width="2.419"/><path d="M10.078 30.297s.806-3.225 5.644-3.426c4.837-.202 5.643-3.427 5.643-3.427" stroke="#FFDF58" stroke-width="2.177"/><path d="M9.344 23.443V10.54h2.122l3.273 8.332c.081.196.176.444.286.744.116.295.231.6.346.918.122.312.229.598.321.858a70.31 70.31 0 01.658-1.776l.286-.744 3.222-8.332h2.13v12.904h-1.533v-7.482c0-.462.006-.976.018-1.542l.034-1.697-.684 1.87a53.574 53.574 0 01-.52 1.369l-2.996 7.482h-1.282l-3.014-7.482c-.133-.33-.3-.76-.502-1.29-.202-.532-.427-1.118-.676-1.759.018.531.03 1.062.035 1.594.012.53.017 1.016.017 1.455v7.482H9.344zM9.344 29.895v12.904h2.122l3.273-8.332c.081-.196.176-.444.286-.745.116-.294.231-.6.346-.918.122-.311.229-.597.321-.857a70.31 70.31 0 00.658 1.775l.286.745 3.222 8.332h2.13V29.895h-1.533v7.482c0 .462.006.976.018 1.542l.034 1.697-.684-1.87a53.574 53.574 0 00-.52-1.369l-2.996-7.483h-1.282l-3.014 7.483c-.133.33-.3.76-.502 1.29-.202.532-.427 1.118-.676 1.759.018-.531.03-1.063.035-1.594.012-.53.017-1.016.017-1.455v-7.483H9.344z" fill="#fff"/></g><defs><clipPath id="bclip0_249_665"><path fill="#fff" transform="translate(-1831 -17972)" d="M0 0h1920v18052H0z"/></clipPath></defs></symbol><symbol viewBox="0 0 9 9" fill="none" id="link" xmlns="http://www.w3.org/2000/svg"><path d="M8 7.88l-7-7m0 0h7m-7 0v7" stroke-width="1.7"/></symbol><symbol viewBox="0 0 211 45" fill="none" id="logo" xmlns="http://www.w3.org/2000/svg"><path d="M48.388 34.016c.76-.868 5.358-4.148 5.197-9.281-.16-5.144-3.247-7.32-4.147-8.145-.665-.6-3.044-2.636-4.266-3.676a1.21 1.21 0 00-1.521-.043c-1.243.933-3.065 2.144-4.501 3.548-1.18 1.146-6.42 7.03-2.862 13.6.74 1.36 2.808 2.86 4.416 4.21 1.168.987 2.175 1.876 2.818 2.455.44.397 1.093.418 1.554.064 1.05-.793 2.797-2.154 3.312-2.743v.01zm-2.648-1.372c-.342.3-.9.182-1.168-.193-.568-.804-1.875-2.133-4.222-4.512-4.04-4.094-.536-8.702 1.65-10.427.418-.333.965-.89 1.522-.022.482.761 1.265 1.78 2.958 3.333 3 2.765 6.773 5.284-.74 11.82zM65.234 18.755l3.483 17.211c.097.46.504.804.975.804h3.698c.546 0 1.018-.386 1.125-.922l3.365-16.847c.032-.171.268-.171.31 0L81.9 35.923c.096.461.514.793.986.804l3.547.021a.68.68 0 00.675-.825s-3.976-18.347-4.78-21.937a.771.771 0 00-.76-.6h-4.973a.896.896 0 00-.879.728l-2.968 14.79c-.054.246-.407.257-.461 0l-3.28-14.961a.698.698 0 00-.664-.547c-1.029-.021-3.14-.043-3.14-.043-.429 0-.814.236-.997.633-.535 1.146-1.736 3.643-3.043 5.54-1.736 2.519-6.13 8.306-5.862 16.247a1.06 1.06 0 001.06 1.008h4.052a.949.949 0 00.964-1.094c-.386-2.518-1.029-8.777 1.211-13.053 1.308-2.475 1.95-3.515 2.272-3.954.107-.15.343-.097.386.085l-.01-.01zM139.318 19.611l3.74 16.74a.55.55 0 00.536.44l4.437.032a.555.555 0 00.546-.686l-5.283-22.173a.56.56 0 00-.536-.429l-2.411-.043a.649.649 0 00-.429.182c-9.87 9.367-9.581 20.277-9.398 22.602a.55.55 0 00.557.504l3.579.021c.386 0 .622-.364.525-.728-1.939-7.395 1.779-13.879 3.494-16.183.289-.386.536-.718.643-.257v-.021zM210.146 36.266l-6.719-22.688a.3.3 0 00-.29-.214l-3.515-.032a.3.3 0 00-.3.257c-.107.74-1.479 3.998-3.451 6.923-3.59 5.305-8.402 14.918-2.872 16.45 4.941 1.372 7.748-6.054 8.831-9.044.096-.279.493-.258.568.021l2.475 8.477a.29.29 0 00.29.214l4.683.033a.3.3 0 00.289-.386l.011-.01zm-13.739-3.59c-2.057.793-2.422-1.854-1.65-5.058.632-2.647 3.59-7.32 4.608-8.874.139-.204.439-.15.504.096l1.2 4.587s.011.086 0 .129c-.289 1.907-2.894 8.455-4.662 9.13v-.01zM186.827 26.385c-.386-.032-.836-.075-1.061-.096-2.294-.29-5.648-.611-8.906-3.344a.7.7 0 01-.247-.525l.043-6.72h3.183c.472.033.932 0 1.2.065 1.008.225 1.919.428 2.594 2.336.354 1.007.525 1.736.611 2.197a.77.77 0 00.75.632h.011a.772.772 0 00.771-.76l.032-5.552a.773.773 0 00-.76-.772l-9.624-.085-3.226-.022a.67.67 0 00-.675.665l-.139 21.884c0 .364.3.664.664.675l13.696.085s1.758.043 1.629-1.993l.054-7.984a.658.658 0 00-.611-.664l.011-.022zm-4.684 8.198c-.193 1.083-1.747.954-1.747.954l-3.107-.021a.67.67 0 01-.665-.675l.054-8.08c0-.547.589-.547 1.028-.215 1.211.9 2.787 1.554 3.505 1.95.986.547.964.804.964.804l-.032 5.284zM158.919 15.368c2.476.01 3.655 3.569 6.57 3.59 2.165.01 3.226-1.243 3.622-1.897.064-.214-.043-.321-.15-.364-.364 0-.943-.01-1.329-.129-2.765-.782-2.433-3.408-8.777-3.45-5.219-.033-8.991 4.575-9.045 12.227-.054 7.652 5.562 11.628 10.17 11.66 3.73.022 6.816-2.797 7.856-3.869a.61.61 0 00.021-.825l-.514-.59a.602.602 0 00-.825-.074c-4.137 3.14-7.652 2.786-9.517.996-1.608-1.532-2.229-4.18-2.379-6.708.557-.493 1.457-.976 2.808-.965 2.679.022 2.293 2.122 5.347 2.143 2.262.011 3.976-1.843 4.716-2.818.161-.214-.011-.514-.279-.493-4.083.386-3.976-2.38-6.912-2.39a9.567 9.567 0 00-5.68 1.79c.289-5.176 1.993-7.845 4.319-7.834h-.022zM33.383 33.083s-.064-.01-.097-.01h-.064H30.082s-.043-.033-.053-.054c-.58-.986-1.265-2.99-2.037-6.013-.953-3.697-1.875-8.112-2.775-13.267-.825-4.715-1.372-8.338-1.64-10.888a.625.625 0 01.622-.686h1.543a.624.624 0 00.621-.632v-.9A.631.631 0 0025.742 0H10.149a.624.624 0 00-.622.632v.9c0 .343.279.633.622.633h2.133c1.253 0 2.121.29 2.604.868.268.343.407.825.407 1.436 0 1.232-.31 2.55-.922 3.944-.31.75-.932 1.918-1.886 3.483-2.143 3.622-3.761 7.008-4.844 10.148-.89 2.53-1.479 5.005-1.79 7.427-.171 1.404-.31 2.24-.407 2.508-.171.536-.44.89-.782 1.082h-2.38-1.178c-.44 0-1.061.322-1.104 1.35l.3 1.105h.01c.097.289.204.6.333.921.343.75.654 1.736.943 2.947.29 1.211.482 2.23.59 3.055.107.814.203 1.36.31 1.64.236.61.633.921 1.168.921.611 0 1.094-.407 1.426-1.232.032-.108.236-.836.61-2.208.58-2.358 1.458-3.89 2.626-4.608 1.18-.718 3.569-1.072 7.17-1.072h5.208c2.38 0 4.116.29 5.209.868 1.875.986 3.022 2.99 3.472 5.99.064.612.214 1.147.428 1.587.226.44.6.664 1.147.664.643 0 1.125-.46 1.426-1.382 0-.032.171-.986.514-2.872.171-.89.332-1.586.482-2.1.15-.515.375-1.148.665-1.898.289-.75.46-1.2.514-1.36.054-.15.075-.354.075-.59 0-.44-.128-.847-.386-1.2a1.223 1.223 0 00-.846-.515l-.011.01zm-23.03-2.626c0-2.132.632-5.09 1.886-8.852 1.221-3.654 3.097-7.609 4.865-10.417.29-.46.965-.321 1.072.215.825 4.03 3.183 15.55 3.75 17.908l.644 3.258a.631.631 0 01-.118.503H11.124c-.525-.428-.793-1.286-.793-2.604l.021-.01zM114.381 35.194v.89c0 .343.225.621.493.621h12.367c.278 0 .493-.278.493-.621v-.89c0-.343-.225-.621-.493-.621h-2.819c-.064-.097-.118-.193-.193-.29-.878-1.264-1.596-2.357-2.132-3.28a89.225 89.225 0 01-1.597-2.86c-.718-1.297-1.393-2.508-2.015-3.644-.621-1.136-1.554-2.947-2.797-5.434l-2.079-4.126c.975-2.614 1.715-4.78 2.454-5.808.825-1.147 1.811-1.726 2.979-1.726.483 0 .965.097 1.447.29.15.064.397.14.643.236.482.182 1.029-.022 1.222-.493.739-1.812 2.733-6.045.9-6.816-.954-.408-1.865-.579-2.701-.579-1.886 0-3.665.59-4.886 2.261-1.072 1.468-2.497 3.558-3.976 7.448 0-.021-.011-.032-.022-.053-.086.246-.182.482-.268.75 0 0-2.647-5.423-4.008-8.23h.6c.29 0 .515-.28.515-.633v-.9c0-.343-.236-.632-.515-.632H95.101c-.29 0-.514.278-.514.632v.9c0 .343.235.632.514.632h3.772c.354 0 .675.15.922.397 2.068 3.965 6.612 12.57 7.684 14.607-.707 2.261-2.336 5.476-4.115 8.68-1.812 3.237-3.473 5.627-4.973 7.299-.557.697-1.318 1.436-1.179 2.39.054.343.172.632.515.857.343.225.964.343 1.875.343a4.676 4.676 0 003.719-1.822c1.672-2.186 3.772-6.12 6.741-12.72l1.2 2.496 2.765 5.348c.557.975.964 1.715 1.2 2.208.397.771.697 1.404.9 1.886.065.15.129.278.193.418l-1.446-.022c-.279 0-.493.279-.493.622v-.01z" fill="#57453A"/></symbol><symbol viewBox="0 0 23 40" fill="none" id="mouse" xmlns="http://www.w3.org/2000/svg"><path opacity=".15" fill-rule="evenodd" clip-rule="evenodd" d="M12.37 5.481V.89c0-.37-.074-.519-.222-.667C12 .074 11.778 0 11.482 0c-.297 0-.519.074-.667.222-.148.148-.222.297-.222.667V5.48l-.815.149C4.296 6.444 0 11.333 0 17.26v10.888C0 34.815 5.111 40 11.482 40c6.37 0 11.481-5.185 11.481-11.852V17.26c0-5.926-4.296-10.815-9.852-11.63l-.74-.148zM1.704 17.26C1.704 11.63 6 7.185 11.48 7.185c5.482 0 9.778 4.445 9.778 10.074v11.26c0 5.63-4.296 10.074-9.777 10.074-5.482 0-9.778-4.445-9.778-10.075V17.26z" fill="#303030"/><path d="M11.48 16.815a2.466 2.466 0 01-2.445-2.445 2.466 2.466 0 012.445-2.444 2.466 2.466 0 012.444 2.444 2.466 2.466 0 01-2.444 2.445zm0-3.778c-.741 0-1.334.592-1.334 1.333s.593 1.334 1.334 1.334c.74 0 1.333-.593 1.333-1.334 0-.74-.593-1.333-1.333-1.333z" fill="#303030"/></symbol><symbol viewBox="0 0 17 16" id="pencil" xmlns="http://www.w3.org/2000/svg"><path d="M1.423 16c.06 0 .121-.006.181-.019l4.312-.861a.911.911 0 00.471-.253l9.486-9.485a2.146 2.146 0 000-3.03L14.148.627a2.143 2.143 0 00-3.028 0l-9.486 9.487a.917.917 0 00-.252.471l-.863 4.312A.923.923 0 001.423 16z"/></symbol><symbol viewBox="0 0 65 65" fill="none" id="play" xmlns="http://www.w3.org/2000/svg"><rect width="65" height="65" rx="32.5" fill="#fff"/><path d="M29.855 27.269c-1.021-.59-1.855-.104-1.855 1.077v8.729c0 1.181.834 1.667 1.862 1.077l7.63-4.378c1.03-.591 1.03-1.543 0-2.134l-7.636-4.371z" fill="#292B32"/></symbol><symbol viewBox="0 0 125 126" fill="none" id="play-big" xmlns="http://www.w3.org/2000/svg"><rect y=".746" width="125" height="125" rx="62.5" fill="#fff"/><path d="M57.424 53.187c-1.965-1.136-3.569-.2-3.569 2.071v16.786c0 2.272 1.604 3.207 3.582 2.071l14.674-8.42c1.978-1.135 1.978-2.966 0-4.102l-14.687-8.406z" fill="#303030"/></symbol><symbol viewBox="0 0 17 16" fill="none" id="prev" xmlns="http://www.w3.org/2000/svg"><path d="M16.071 8.064H1.93m0 0L9 .993m-7.071 7.07L9 15.136" stroke-width="2"/></symbol><symbol viewBox="0 0 20 17" id="tg" xmlns="http://www.w3.org/2000/svg"><path d="M7.876 11.259l-.327 4.406c.466 0 .67-.193.913-.426l2.19-2.009 4.535 3.19c.832.443 1.418.21 1.641-.737l2.98-13.395c.265-1.176-.444-1.639-1.253-1.346L1.052 7.375C-.143 7.819-.124 8.458.847 8.747l4.474 1.335 10.394-6.244c.49-.31.932-.14.566.174l-8.405 7.247z"/></symbol><symbol viewBox="0 0 36 21" id="vk-big" xmlns="http://www.w3.org/2000/svg"><path d="M35.668 18.808a2.364 2.364 0 00-.121-.228c-.62-1.095-1.804-2.44-3.552-4.034l-.037-.036-.018-.018-.019-.019h-.019c-.793-.742-1.295-1.24-1.506-1.496-.385-.487-.47-.98-.26-1.479.148-.377.706-1.174 1.673-2.39.509-.645.911-1.162 1.209-1.552 2.144-2.798 3.074-4.587 2.789-5.366l-.11-.182c-.075-.11-.267-.21-.577-.3-.31-.092-.707-.107-1.19-.046l-5.356.036c-.086-.03-.21-.027-.372.01l-.242.054-.093.046-.074.055a.82.82 0 00-.204.191 1.245 1.245 0 00-.186.32 29.554 29.554 0 01-1.99 4.106c-.458.754-.88 1.408-1.264 1.962-.385.553-.707.961-.967 1.223-.26.261-.496.47-.707.63-.21.158-.372.225-.483.2a13.92 13.92 0 01-.317-.073 1.223 1.223 0 01-.418-.447 1.974 1.974 0 01-.213-.712 7.721 7.721 0 01-.066-.74c-.006-.206-.003-.498.01-.875.013-.378.018-.633.018-.767 0-.462.01-.964.028-1.506.019-.541.034-.97.047-1.286.012-.316.018-.651.018-1.004s-.022-.63-.065-.83a2.799 2.799 0 00-.195-.585.989.989 0 00-.38-.438 2.171 2.171 0 00-.624-.246C19.178.84 18.341.76 17.325.749c-2.306-.025-3.787.122-4.444.438-.26.134-.496.316-.707.547-.223.268-.254.414-.093.438.744.11 1.27.371 1.58.785l.112.22c.087.157.174.437.26.839.087.401.143.845.168 1.332.062.888.062 1.649 0 2.281-.062.633-.121 1.126-.177 1.479-.056.352-.14.638-.251.857a3.596 3.596 0 01-.223.402.319.319 0 01-.093.091c-.161.06-.329.091-.502.091-.174 0-.385-.085-.632-.255a4.435 4.435 0 01-.772-.703c-.267-.298-.567-.715-.902-1.25a21.705 21.705 0 01-1.041-1.898l-.298-.53c-.186-.34-.44-.836-.762-1.487a28.416 28.416 0 01-.855-1.89c-.1-.255-.248-.45-.447-.583l-.093-.055a1.28 1.28 0 00-.297-.155 2.003 2.003 0 00-.428-.119l-5.095.037c-.52 0-.874.115-1.06.347L.2 2.117a.581.581 0 00-.056.292c0 .134.037.298.111.493a59.75 59.75 0 002.427 4.964c.874 1.594 1.633 2.878 2.278 3.85a45.467 45.467 0 001.97 2.757c.67.864 1.113 1.417 1.33 1.66.217.244.388.427.512.548l.465.438c.297.292.734.642 1.31 1.05.577.407 1.216.809 1.916 1.205.7.395 1.515.717 2.445.966.93.25 1.835.35 2.715.302h2.139c.433-.037.762-.17.985-.402l.074-.091c.05-.073.096-.186.14-.337.043-.152.065-.32.065-.502a5.903 5.903 0 01.12-1.415c.093-.42.199-.735.317-.949.118-.213.251-.392.4-.538.148-.146.254-.234.316-.265.062-.03.111-.05.148-.063.298-.098.648-.003 1.051.283.403.286.781.639 1.135 1.058.353.42.777.892 1.273 1.415.496.523.93.912 1.302 1.168l.372.219c.248.146.57.28.967.402.396.121.743.151 1.041.09l4.76-.072c.47 0 .837-.077 1.097-.229.26-.152.415-.32.465-.501.05-.183.053-.39.01-.621a2.253 2.253 0 00-.131-.484z"/></symbol><symbol fill="none" viewBox="0 0 16 16" id="warning" xmlns="http://www.w3.org/2000/svg"><path d="M8.895 5.83V13H7.111V5.83h1.784zM7 3.96c0-.277.09-.507.272-.688C7.452 3.09 7.695 3 8 3c.3 0 .541.09.722.272.185.18.278.41.278.689a.923.923 0 01-.278.69c-.18.18-.422.27-.722.27-.305 0-.547-.09-.728-.27A.934.934 0 017 3.96z" fill="#C5C5C5"/><rect x=".5" y=".5" width="15" height="15" rx="7.5" stroke="#C5C5C5"/></symbol><symbol viewBox="0 0 31 21" id="yt" xmlns="http://www.w3.org/2000/svg"><path fill-rule="evenodd" clip-rule="evenodd" d="M3.85 20.155c-.523-.155-1-.43-1.391-.802a3.316 3.316 0 01-.856-1.339c-.98-2.618-1.27-13.552.616-15.71A3.657 3.657 0 014.684 1.1c5.056-.53 20.68-.46 22.474.177.504.16.965.43 1.348.788.383.358.678.797.863 1.282 1.07 2.707 1.105 12.544-.145 15.145a3.384 3.384 0 01-1.577 1.557c-1.885.92-21.296.902-23.797.106zm8.029-5.13l9.062-4.6-9.062-4.636v9.235z"/></symbol></svg>