<?xml version="1.0" encoding="utf-8"?><svg xmlns="http://www.w3.org/2000/svg" xmlns:xlink="http://www.w3.org/1999/xlink"><symbol viewBox="0 0 13 9" fill="none" id="burger" xmlns="http://www.w3.org/2000/svg"><rect x=".346" y="6.346" width="12.308" height="1.846" rx=".923" fill="#DE7D57"/><rect x=".346" y=".808" width="12.308" height="1.846" rx=".923" fill="#DE7D57"/></symbol><symbol viewBox="0 0 18 22" id="calc" xmlns="http://www.w3.org/2000/svg"><path d="M14.257 1.198L4.799.703A3.359 3.359 0 001.26 3.878L.566 17.146a3.36 3.36 0 003.186 3.53l9.458.495a3.352 3.352 0 003.53-3.177l.695-13.268a3.351 3.351 0 00-3.178-3.528zm-8.17 15.705a.74.74 0 01-.786.687l-1.567-.082a.732.732 0 01-.701-.765l.082-1.567a.74.74 0 01.777-.698l1.568.082c.406.022.73.37.71.776l-.083 1.567zm.212-4.051a.758.758 0 01-.787.707l-1.567-.082a.75.75 0 01-.7-.786l.082-1.567a.744.744 0 01.778-.701l1.567.082c.406.021.73.373.71.78l-.083 1.566zm3.998 4.271a.732.732 0 01-.778.688l-1.567-.082a.738.738 0 01-.71-.766l.083-1.566a.747.747 0 01.785-.698l1.568.082a.741.741 0 01.701.776l-.082 1.566zm.212-4.05a.75.75 0 01-.779.708l-1.567-.083a.757.757 0 01-.708-.786l.082-1.567a.75.75 0 01.786-.701l1.567.082a.745.745 0 01.702.779l-.083 1.567zm3.818 4.262a.736.736 0 01-.783.687l-1.566-.082a.736.736 0 01-.706-.766l.082-1.566a.744.744 0 01.783-.698l1.566.082c.406.022.728.37.706.776l-.082 1.567zm.213-4.052a.754.754 0 01-.784.709l-1.567-.083a.754.754 0 01-.705-.786l.083-1.567a.747.747 0 01.782-.701l1.567.082a.749.749 0 01.706.78l-.082 1.566zm.3-5.724a1.489 1.489 0 01-1.572 1.413L4.97 8.537a1.498 1.498 0 01-1.425-1.57l.07-1.345A1.507 1.507 0 015.197 4.2l8.299.435a1.498 1.498 0 011.414 1.58l-.07 1.345z"/></symbol><symbol viewBox="0 0 22 22" id="chat" xmlns="http://www.w3.org/2000/svg"><path d="M16.516 11.806a.617.617 0 00-.597-.073l-2.121.824c.025.151.025.31.017.468l-.327 6.241a2.158 2.158 0 01-.066.464l2.023 1.04a.583.583 0 00.255.073.65.65 0 00.346-.082c.181-.108.3-.302.31-.51l.415-7.906a.638.638 0 00-.255-.539zM10.269 20.975l-7.906-.414a1.877 1.877 0 01-1.775-1.97l.328-6.242a1.877 1.877 0 011.97-1.774l7.906.414a1.877 1.877 0 011.774 1.97l-.327 6.242a1.877 1.877 0 01-1.97 1.774zM20.051 1.46l-7.073-.37a1.46 1.46 0 00-1.533 1.38l-.196 3.745a1.46 1.46 0 001.38 1.533l1.04.054-.098 1.872a.625.625 0 001.062.48l2.223-2.185 2.846.15a1.46 1.46 0 001.533-1.38l.197-3.746a1.46 1.46 0 00-1.38-1.532zm-5.824 3.66a.625.625 0 11.066-1.25.625.625 0 01-.066 1.25zm2.08.108a.625.625 0 11.066-1.249.625.625 0 01-.066 1.25zm2.08.11a.625.625 0 11.067-1.25.625.625 0 01-.066 1.25z"/></symbol><symbol fill="none" viewBox="0 0 35 51" id="dev" xmlns="http://www.w3.org/2000/svg"><path fill="#B4B4B4" d="M0 0h35v51H0z"/><g clip-path="url(#adclip0_249_665)"><path fill="#fff" d="M-1831-17972H89V80h-1920z"/><path d="M32.103 5.948c-.338 0-.657-.063-.956-.19a2.536 2.536 0 01-1.316-1.316 2.421 2.421 0 01-.19-.957c0-.338.063-.656.19-.952a2.52 2.52 0 01.533-.787c.226-.226.487-.402.783-.529.3-.13.618-.195.956-.195.342 0 .66.065.957.195a2.464 2.464 0 011.316 3.225 2.477 2.477 0 01-.529.783 2.522 2.522 0 01-.787.533c-.296.127-.615.19-.957.19zm0-.592c.347 0 .662-.083.944-.25a1.91 1.91 0 00.673-.677c.17-.285.254-.6.254-.944s-.085-.657-.254-.94a1.866 1.866 0 00-2.56-.676 1.9 1.9 0 00-.677.677c-.167.282-.25.595-.25.94 0 .344.083.658.25.943.169.282.395.508.677.677.285.167.6.25.943.25zm-.863-.762V2.326h1.151a.656.656 0 01.305.076c.11.05.203.13.28.237a.667.667 0 01.118.406.729.729 0 01-.11.406.846.846 0 01-.263.259l.466.884h-.55l-.402-.77h-.495v.77h-.5zm.5-1.143h.465c.068.003.141-.03.22-.097.08-.068.119-.17.119-.309 0-.138-.041-.231-.123-.279a.4.4 0 00-.207-.076h-.474v.761z" fill="#fff"/><path d="M30.233 26.266c0 6.553-1.24 12.36-3.685 16.486-2.414 4.07-5.979 6.491-10.827 6.491-4.847 0-8.413-2.42-10.826-6.491-2.446-4.125-3.686-9.933-3.686-16.486 0-6.554 1.24-12.361 3.686-16.486 2.413-4.07 5.979-6.492 10.826-6.492 4.848 0 8.413 2.421 10.827 6.492 2.445 4.125 3.685 9.932 3.685 16.486z" stroke="#fff" stroke-width="2.419"/><path d="M10.078 30.297s.806-3.225 5.644-3.426c4.837-.202 5.643-3.427 5.643-3.427" stroke="#FFDF58" stroke-width="2.177"/><path d="M9.344 23.443V10.54h2.122l3.273 8.332c.081.196.176.444.286.744.116.295.231.6.346.918.122.312.229.598.321.858a70.31 70.31 0 01.658-1.776l.286-.744 3.222-8.332h2.13v12.904h-1.533v-7.482c0-.462.006-.976.018-1.542l.034-1.697-.684 1.87a53.574 53.574 0 01-.52 1.369l-2.996 7.482h-1.282l-3.014-7.482c-.133-.33-.3-.76-.502-1.29-.202-.532-.427-1.118-.676-1.759.018.531.03 1.062.035 1.594.012.53.017 1.016.017 1.455v7.482H9.344zM9.344 29.895v12.904h2.122l3.273-8.332c.081-.196.176-.444.286-.745.116-.294.231-.6.346-.918.122-.311.229-.597.321-.857a70.31 70.31 0 00.658 1.775l.286.745 3.222 8.332h2.13V29.895h-1.533v7.482c0 .462.006.976.018 1.542l.034 1.697-.684-1.87a53.574 53.574 0 00-.52-1.369l-2.996-7.483h-1.282l-3.014 7.483c-.133.33-.3.76-.502 1.29-.202.532-.427 1.118-.676 1.759.018-.531.03-1.063.035-1.594.012-.53.017-1.016.017-1.455v-7.483H9.344z" fill="#fff"/></g><defs><clipPath id="adclip0_249_665"><path fill="#fff" transform="translate(-1831 -17972)" d="M0 0h1920v18052H0z"/></clipPath></defs></symbol><symbol viewBox="0 0 15 16" fill="none" id="dot" xmlns="http://www.w3.org/2000/svg"><circle cx="7.5" cy="8" r="7.5" fill="#D9D9D9"/></symbol><symbol viewBox="0 0 12 12" fill="none" id="down" xmlns="http://www.w3.org/2000/svg"><path d="M6.05.906v9.9m0 0L1.1 5.855m4.95 4.95L11 5.855" stroke="#303030" stroke-width="1.7"/></symbol><symbol viewBox="0 0 16 18" id="download" xmlns="http://www.w3.org/2000/svg"><path d="M3 .187C1.627.187.5 1.308.5 2.682v12.504c0 1.374 1.126 2.5 2.5 2.5h9.998a2.51 2.51 0 002.501-2.5V5.183c0-.765-.303-1.498-.844-2.04l-2.113-2.112a2.89 2.89 0 00-2.044-.844H3.001zm1.265 7.496h7.47a.625.625 0 010 1.252h-7.47a.625.625 0 010-1.252zm0 3.752h4.982a.624.624 0 01.445 1.067.625.625 0 01-.445.183H4.265a.625.625 0 010-1.25z"/></symbol><symbol viewBox="0 0 20 21" id="event" xmlns="http://www.w3.org/2000/svg"><path d="M8.378 11.453a4.75 4.75 0 10.497-9.487 4.75 4.75 0 00-.497 9.487zM11.46 13.2l-6.325-.33a3.959 3.959 0 00-4.16 3.745 2.375 2.375 0 002.247 2.496l9.487.497a2.375 2.375 0 002.496-2.247 3.959 3.959 0 00-3.745-4.16zM17.949 10.37l-2.048-.108.25-.217a.795.795 0 00-1.065-1.181l-1.664 1.498a.792.792 0 00-.058 1.123l1.498 1.664a.79.79 0 001.123.059.79.79 0 00.058-1.123l-.225-.242 2.048.107a.792.792 0 10.083-1.58z"/></symbol><symbol viewBox="0 0 9 9" fill="none" id="link" xmlns="http://www.w3.org/2000/svg"><path d="M8 7.88l-7-7m0 0h7m-7 0v7" stroke-width="1.7"/></symbol><symbol viewBox="0 0 211 45" id="logo" xmlns="http://www.w3.org/2000/svg"><path d="M48.388 34.016c.76-.868 5.358-4.148 5.197-9.281-.16-5.144-3.247-7.32-4.147-8.145-.665-.6-3.044-2.636-4.266-3.676a1.21 1.21 0 00-1.521-.043c-1.243.933-3.065 2.144-4.501 3.548-1.18 1.146-6.42 7.03-2.862 13.6.74 1.36 2.808 2.86 4.416 4.21 1.168.987 2.175 1.876 2.818 2.455.44.397 1.093.418 1.554.064 1.05-.793 2.797-2.154 3.312-2.743v.01zm-2.648-1.372c-.342.3-.9.182-1.168-.193-.568-.804-1.875-2.133-4.222-4.512-4.04-4.094-.536-8.702 1.65-10.427.418-.333.965-.89 1.522-.022.482.761 1.265 1.78 2.958 3.333 3 2.765 6.773 5.284-.74 11.82zM65.234 18.755l3.483 17.211c.097.46.504.804.975.804h3.698c.546 0 1.018-.386 1.125-.922l3.365-16.847c.032-.171.268-.171.31 0L81.9 35.923c.096.461.514.793.986.804l3.547.021a.68.68 0 00.675-.825s-3.976-18.347-4.78-21.937a.771.771 0 00-.76-.6h-4.973a.896.896 0 00-.879.728l-2.968 14.79c-.054.246-.407.257-.461 0l-3.28-14.961a.698.698 0 00-.664-.547c-1.029-.021-3.14-.043-3.14-.043-.429 0-.814.236-.997.633-.535 1.146-1.736 3.643-3.043 5.54-1.736 2.519-6.13 8.306-5.862 16.247a1.06 1.06 0 001.06 1.008h4.052a.949.949 0 00.964-1.094c-.386-2.518-1.029-8.777 1.211-13.053 1.308-2.475 1.95-3.515 2.272-3.954.107-.15.343-.097.386.085l-.01-.01zM139.318 19.611l3.74 16.74a.55.55 0 00.536.44l4.437.032a.555.555 0 00.546-.686l-5.283-22.173a.56.56 0 00-.536-.429l-2.411-.043a.649.649 0 00-.429.182c-9.87 9.367-9.581 20.277-9.398 22.602a.55.55 0 00.557.504l3.579.021c.386 0 .622-.364.525-.728-1.939-7.395 1.779-13.879 3.494-16.183.289-.386.536-.718.643-.257v-.021zM210.146 36.266l-6.719-22.688a.3.3 0 00-.29-.214l-3.515-.032a.3.3 0 00-.3.257c-.107.74-1.479 3.998-3.451 6.923-3.59 5.305-8.402 14.918-2.872 16.45 4.941 1.372 7.748-6.054 8.831-9.044.096-.279.493-.258.568.021l2.475 8.477a.29.29 0 00.29.214l4.683.033a.3.3 0 00.289-.386l.011-.01zm-13.739-3.59c-2.057.793-2.422-1.854-1.65-5.058.632-2.647 3.59-7.32 4.608-8.874.139-.204.439-.15.504.096l1.2 4.587s.011.086 0 .129c-.289 1.907-2.894 8.455-4.662 9.13v-.01zM186.827 26.385c-.386-.032-.836-.075-1.061-.096-2.294-.29-5.648-.611-8.906-3.344a.7.7 0 01-.247-.525l.043-6.72h3.183c.472.033.932 0 1.2.065 1.008.225 1.919.428 2.594 2.336.354 1.007.525 1.736.611 2.197a.77.77 0 00.75.632h.011a.772.772 0 00.771-.76l.032-5.552a.773.773 0 00-.76-.772l-9.624-.085-3.226-.022a.67.67 0 00-.675.665l-.139 21.884c0 .364.3.664.664.675l13.696.085s1.758.043 1.629-1.993l.054-7.984a.658.658 0 00-.611-.664l.011-.022zm-4.684 8.198c-.193 1.083-1.747.954-1.747.954l-3.107-.021a.67.67 0 01-.665-.675l.054-8.08c0-.547.589-.547 1.028-.215 1.211.9 2.787 1.554 3.505 1.95.986.547.964.804.964.804l-.032 5.284zM158.919 15.368c2.476.01 3.655 3.569 6.57 3.59 2.165.01 3.226-1.243 3.622-1.897.064-.214-.043-.321-.15-.364-.364 0-.943-.01-1.329-.129-2.765-.782-2.433-3.408-8.777-3.45-5.219-.033-8.991 4.575-9.045 12.227-.054 7.652 5.562 11.628 10.17 11.66 3.73.022 6.816-2.797 7.856-3.869a.61.61 0 00.021-.825l-.514-.59a.602.602 0 00-.825-.074c-4.137 3.14-7.652 2.786-9.517.996-1.608-1.532-2.229-4.18-2.379-6.708.557-.493 1.457-.976 2.808-.965 2.679.022 2.293 2.122 5.347 2.143 2.262.011 3.976-1.843 4.716-2.818.161-.214-.011-.514-.279-.493-4.083.386-3.976-2.38-6.912-2.39a9.567 9.567 0 00-5.68 1.79c.289-5.176 1.993-7.845 4.319-7.834h-.022zM33.383 33.083s-.064-.01-.097-.01h-.064H30.082s-.043-.033-.053-.054c-.58-.986-1.265-2.99-2.037-6.013-.953-3.697-1.875-8.112-2.775-13.267-.825-4.715-1.372-8.338-1.64-10.888a.625.625 0 01.622-.686h1.543a.624.624 0 00.621-.632v-.9A.631.631 0 0025.742 0H10.149a.624.624 0 00-.622.632v.9c0 .343.279.633.622.633h2.133c1.253 0 2.121.29 2.604.868.268.343.407.825.407 1.436 0 1.232-.31 2.55-.922 3.944-.31.75-.932 1.918-1.886 3.483-2.143 3.622-3.761 7.008-4.844 10.148-.89 2.53-1.479 5.005-1.79 7.427-.171 1.404-.31 2.24-.407 2.508-.171.536-.44.89-.782 1.082h-2.38-1.178c-.44 0-1.061.322-1.104 1.35l.3 1.105h.01c.097.289.204.6.333.921.343.75.654 1.736.943 2.947.29 1.211.482 2.23.59 3.055.107.814.203 1.36.31 1.64.236.61.633.921 1.168.921.611 0 1.094-.407 1.426-1.232.032-.108.236-.836.61-2.208.58-2.358 1.458-3.89 2.626-4.608 1.18-.718 3.569-1.072 7.17-1.072h5.208c2.38 0 4.116.29 5.209.868 1.875.986 3.022 2.99 3.472 5.99.064.612.214 1.147.428 1.587.226.44.6.664 1.147.664.643 0 1.125-.46 1.426-1.382 0-.032.171-.986.514-2.872.171-.89.332-1.586.482-2.1.15-.515.375-1.148.665-1.898.289-.75.46-1.2.514-1.36.054-.15.075-.354.075-.59 0-.44-.128-.847-.386-1.2a1.223 1.223 0 00-.846-.515l-.011.01zm-23.03-2.626c0-2.132.632-5.09 1.886-8.852 1.221-3.654 3.097-7.609 4.865-10.417.29-.46.965-.321 1.072.215.825 4.03 3.183 15.55 3.75 17.908l.644 3.258a.631.631 0 01-.118.503H11.124c-.525-.428-.793-1.286-.793-2.604l.021-.01zM114.381 35.194v.89c0 .343.225.621.493.621h12.367c.278 0 .493-.278.493-.621v-.89c0-.343-.225-.621-.493-.621h-2.819c-.064-.097-.118-.193-.193-.29-.878-1.264-1.596-2.357-2.132-3.28a89.225 89.225 0 01-1.597-2.86c-.718-1.297-1.393-2.508-2.015-3.644-.621-1.136-1.554-2.947-2.797-5.434l-2.079-4.126c.975-2.614 1.715-4.78 2.454-5.808.825-1.147 1.811-1.726 2.979-1.726.483 0 .965.097 1.447.29.15.064.397.14.643.236.482.182 1.029-.022 1.222-.493.739-1.812 2.733-6.045.9-6.816-.954-.408-1.865-.579-2.701-.579-1.886 0-3.665.59-4.886 2.261-1.072 1.468-2.497 3.558-3.976 7.448 0-.021-.011-.032-.022-.053-.086.246-.182.482-.268.75 0 0-2.647-5.423-4.008-8.23h.6c.29 0 .515-.28.515-.633v-.9c0-.343-.236-.632-.515-.632H95.101c-.29 0-.514.278-.514.632v.9c0 .343.235.632.514.632h3.772c.354 0 .675.15.922.397 2.068 3.965 6.612 12.57 7.684 14.607-.707 2.261-2.336 5.476-4.115 8.68-1.812 3.237-3.473 5.627-4.973 7.299-.557.697-1.318 1.436-1.179 2.39.054.343.172.632.515.857.343.225.964.343 1.875.343a4.676 4.676 0 003.719-1.822c1.672-2.186 3.772-6.12 6.741-12.72l1.2 2.496 2.765 5.348c.557.975.964 1.715 1.2 2.208.397.771.697 1.404.9 1.886.065.15.129.278.193.418l-1.446-.022c-.279 0-.493.279-.493.622v-.01z"/></symbol><symbol viewBox="0 0 23 40" fill="none" id="mouse" xmlns="http://www.w3.org/2000/svg"><path opacity=".15" fill-rule="evenodd" clip-rule="evenodd" d="M12.37 5.481V.89c0-.37-.074-.519-.222-.667C12 .074 11.778 0 11.482 0c-.297 0-.519.074-.667.222-.148.148-.222.297-.222.667V5.48l-.815.149C4.296 6.444 0 11.333 0 17.26v10.888C0 34.815 5.111 40 11.482 40c6.37 0 11.481-5.185 11.481-11.852V17.26c0-5.926-4.296-10.815-9.852-11.63l-.74-.148zM1.704 17.26C1.704 11.63 6 7.185 11.48 7.185c5.482 0 9.778 4.445 9.778 10.074v11.26c0 5.63-4.296 10.074-9.777 10.074-5.482 0-9.778-4.445-9.778-10.075V17.26z" fill="#303030"/><path d="M11.48 16.815a2.466 2.466 0 01-2.445-2.445 2.466 2.466 0 012.445-2.444 2.466 2.466 0 012.444 2.444 2.466 2.466 0 01-2.444 2.445zm0-3.778c-.741 0-1.334.592-1.334 1.333s.593 1.334 1.334 1.334c.74 0 1.333-.593 1.333-1.334 0-.74-.593-1.333-1.333-1.333z" fill="#303030"/></symbol><symbol viewBox="0 0 22 22" id="online" xmlns="http://www.w3.org/2000/svg"><path d="M16.516 12.124a.617.617 0 00-.597-.073l-2.121.823c.025.152.025.31.017.468l-.327 6.242a2.158 2.158 0 01-.066.464l2.023 1.04a.583.583 0 00.255.072.649.649 0 00.346-.082c.181-.107.3-.301.31-.51l.415-7.905a.638.638 0 00-.255-.54zM10.269 21.293l-7.906-.415a1.877 1.877 0 01-1.774-1.97l.327-6.242a1.877 1.877 0 011.97-1.774l7.906.415a1.877 1.877 0 011.774 1.97l-.327 6.242a1.877 1.877 0 01-1.97 1.774zM20.051 1.778l-7.073-.37a1.46 1.46 0 00-1.533 1.38l-.196 3.744a1.46 1.46 0 001.38 1.533l1.04.055-.098 1.872a.625.625 0 001.062.479l2.223-2.184 2.846.149a1.46 1.46 0 001.533-1.38l.196-3.745a1.46 1.46 0 00-1.38-1.533zm-5.824 3.659a.625.625 0 11.066-1.25.625.625 0 01-.066 1.25zm2.08.109a.625.625 0 11.066-1.249.625.625 0 01-.066 1.249zm2.08.109a.625.625 0 11.067-1.249.625.625 0 01-.066 1.249z"/></symbol><symbol viewBox="0 0 40 40" id="partner" xmlns="http://www.w3.org/2000/svg"><path d="M22.2 23.61l-1.992 1.04c-2.048 1.092-4.64.572-6.153-1.24l-.98-1.175c-.83-1-.762-2.448.158-3.365l6.105-6.105-1.203-.708a1.261 1.261 0 00-.635-.172h-4.54l.658-1.315a1.25 1.25 0 00-.56-1.678l-3.75-1.875a1.25 1.25 0 00-1.675.56l-7.5 15a1.25 1.25 0 00.56 1.678l3.75 1.875a1.255 1.255 0 001.678-.56l.424-.848 9.693 7.168a6.302 6.302 0 003.745 1.225c1.34 0 2.675-.423 3.782-1.265l4.35-3.34-5.915-4.9z"/><path d="M39.868 22.577l-7.5-15a1.25 1.25 0 00-1.678-.56l-3.75 1.875a1.252 1.252 0 00-.56 1.677l.66 1.315h-3.287L15 20.634l.977 1.175c.756.905 2.043 1.17 3.066.628l3.477-1.813 7.638 6.328 3.19-2.46.537 1.075a1.253 1.253 0 001.678.557l3.75-1.875a1.246 1.246 0 00.555-1.672z"/></symbol><symbol viewBox="0 0 17 16" id="pencil" xmlns="http://www.w3.org/2000/svg"><path d="M1.423 16c.06 0 .121-.006.181-.019l4.312-.861a.911.911 0 00.471-.253l9.486-9.485a2.146 2.146 0 000-3.03L14.148.627a2.143 2.143 0 00-3.028 0l-9.486 9.487a.917.917 0 00-.252.471l-.863 4.312A.923.923 0 001.423 16z"/></symbol><symbol viewBox="0 0 13 13" fill="none" id="phone" xmlns="http://www.w3.org/2000/svg"><path fill-rule="evenodd" clip-rule="evenodd" d="M12.284 10.897c-.37 1.125-1.822 1.687-2.858 1.593-1.416-.128-2.957-.88-4.127-1.706C3.58 9.568 1.97 7.687 1.031 5.69.368 4.28.22 2.547 1.206 1.26 1.57.786 1.965.532 2.558.502c.822-.04.937.43 1.22 1.164.21.548.49 1.107.648 1.675.293 1.06-.733 1.104-.863 1.97-.08.547.582 1.28.881 1.669A8.083 8.083 0 006.53 8.902c.456.287 1.19.805 1.712.52.804-.44.728-1.795 1.85-1.337.582.237 1.146.579 1.7.878.86.462.82.94.492 1.934.245-.743-.245.742 0 0z" fill="#393838"/></symbol><symbol viewBox="0 0 50 50" fill="none" id="phone-black" xmlns="http://www.w3.org/2000/svg"><rect width="50" height="50" rx="25" fill="#303030"/><path d="M34 31.111v-1.554c0-.773-.47-1.467-1.187-1.754l-1.922-.769a1.889 1.889 0 00-2.39.91l-.168.334s-2.36-.472-4.25-2.361c-1.889-1.89-2.36-4.25-2.36-4.25l.334-.168a1.889 1.889 0 00.909-2.39l-.769-1.922A1.889 1.889 0 0020.443 16H18.89A1.889 1.889 0 0017 17.889C17 26.235 23.765 33 32.111 33A1.889 1.889 0 0034 31.111z" fill="#fff"/></symbol><symbol viewBox="0 0 65 65" fill="none" id="play" xmlns="http://www.w3.org/2000/svg"><rect width="65" height="65" rx="32.5" fill="#fff"/><path d="M29.855 27.269c-1.021-.59-1.855-.104-1.855 1.077v8.729c0 1.181.834 1.667 1.862 1.077l7.63-4.378c1.03-.591 1.03-1.543 0-2.134l-7.636-4.371z" fill="#292B32"/></symbol><symbol viewBox="0 0 125 126" fill="none" id="play-big" xmlns="http://www.w3.org/2000/svg"><rect y=".746" width="125" height="125" rx="62.5" fill="#fff"/><path d="M57.424 53.187c-1.965-1.136-3.569-.2-3.569 2.071v16.786c0 2.272 1.604 3.207 3.582 2.071l14.674-8.42c1.978-1.135 1.978-2.966 0-4.102l-14.687-8.406z" fill="#303030"/></symbol><symbol viewBox="0 0 10 11" id="plus" xmlns="http://www.w3.org/2000/svg"><path d="M10 4.033v2.934H6.542V11H3.458V6.967H0V4.033h3.458V0h3.084v4.033H10z"/></symbol><symbol viewBox="0 0 17 16" fill="none" id="prev" xmlns="http://www.w3.org/2000/svg"><path d="M16.071 8.064H1.93m0 0L9 .993m-7.071 7.07L9 15.136" stroke-width="2"/></symbol><symbol viewBox="0 0 55 56" fill="none" id="soc-tg" xmlns="http://www.w3.org/2000/svg"><rect y=".746" width="55" height="55" rx="27.5" fill="#119BFF"/><path d="M25.74 31.148l-.327 4.406c.466 0 .67-.192.913-.425l2.19-2.009 4.535 3.189c.832.444 1.418.21 1.642-.736l2.979-13.395c.266-1.177-.444-1.639-1.253-1.347l-17.503 6.433c-1.195.444-1.176 1.084-.204 1.373l4.474 1.335 10.393-6.244c.49-.311.933-.14.566.174l-8.404 7.246z" fill="#fff"/></symbol><symbol viewBox="0 0 55 56" fill="none" id="soc-wa" xmlns="http://www.w3.org/2000/svg"><rect y=".746" width="55" height="55" rx="27.5" fill="#43C560"/><path d="M27.852 17.746C21.86 17.746 17 22.607 17 28.598c0 2.399.776 4.608 2.09 6.408l-1.383 4.09 4.312-1.344a10.827 10.827 0 005.833 1.698c5.99 0 10.852-4.861 10.852-10.852 0-5.99-4.861-10.852-10.852-10.852zM32.82 34.42c-1.97.789-4.318.025-6.887-1.926-2.57-1.95-4.261-4.697-4.375-6.736-.114-2.039 1.547-3.068 2.45-3.062.902.007 1.893 2.892 1.906 3.334.012.448-1.105 1.243-1.15 1.622-.043.379 1.522 2.247 2.185 2.753.657.498 2.014 1.458 2.715 1.37.694-.095 1.155-1.49 1.597-1.579.442-.088 2.853 1.111 3.093 1.42.24.316.215 2.11-1.534 2.804z" fill="#fff"/></symbol><symbol viewBox="0 0 151 150" fill="none" id="stat" xmlns="http://www.w3.org/2000/svg"><g clip-path="url(#awclip0_249_1053)"><path d="M132.909 21.216a5.84 5.84 0 01-5.841 5.84 5.84 5.84 0 01-5.841-5.84 5.84 5.84 0 015.841-5.841 5.84 5.84 0 015.841 5.84zM115.591 21.216a5.84 5.84 0 01-5.841 5.84 5.84 5.84 0 01-5.841-5.84 5.84 5.84 0 015.841-5.841 5.84 5.84 0 015.841 5.84zM98.273 21.216a5.839 5.839 0 01-5.841 5.84 5.839 5.839 0 01-5.841-5.84 5.839 5.839 0 015.84-5.841 5.839 5.839 0 015.842 5.84zM80.954 21.216a5.839 5.839 0 01-5.84 5.84 5.839 5.839 0 01-5.841-5.84 5.839 5.839 0 015.84-5.841 5.839 5.839 0 015.841 5.84zM63.636 21.216a5.839 5.839 0 01-5.84 5.84 5.84 5.84 0 01-5.841-5.84 5.84 5.84 0 015.84-5.841 5.839 5.839 0 015.841 5.84zM46.318 21.216a5.84 5.84 0 01-5.84 5.84 5.839 5.839 0 01-5.842-5.84 5.839 5.839 0 015.841-5.841 5.84 5.84 0 015.841 5.84zM29 21.216a5.839 5.839 0 01-5.84 5.84 5.839 5.839 0 01-5.842-5.84 5.839 5.839 0 015.841-5.841A5.839 5.839 0 0129 21.215zM11.693 21.216a5.84 5.84 0 01-5.84 5.84C2.624 27.057 0 24.444 0 21.217a5.84 5.84 0 015.84-5.841 5.839 5.839 0 015.842 5.84h.011zM150.227 21.216a5.839 5.839 0 01-5.841 5.84 5.84 5.84 0 01-5.841-5.84 5.84 5.84 0 015.841-5.841 5.839 5.839 0 015.841 5.84zM132.909 36.58a5.84 5.84 0 01-5.841 5.84 5.84 5.84 0 01-5.841-5.84 5.84 5.84 0 015.841-5.841 5.84 5.84 0 015.841 5.84zM109.75 42.42a5.84 5.84 0 100-11.681 5.84 5.84 0 000 11.681zM92.432 42.42a5.84 5.84 0 100-11.681 5.84 5.84 0 000 11.681zM75.114 42.42a5.84 5.84 0 100-11.681 5.84 5.84 0 000 11.681zM57.795 42.42a5.84 5.84 0 100-11.681 5.84 5.84 0 000 11.681zM40.477 42.42a5.841 5.841 0 100-11.681 5.841 5.841 0 000 11.681zM23.16 42.42a5.841 5.841 0 10-.001-11.681 5.841 5.841 0 000 11.681zM5.84 42.42a5.84 5.84 0 100-11.681 5.84 5.84 0 000 11.681zM150.227 36.58a5.839 5.839 0 01-5.841 5.84 5.84 5.84 0 01-5.841-5.84 5.84 5.84 0 015.841-5.841 5.839 5.839 0 015.841 5.84zM132.909 51.943a5.84 5.84 0 01-5.841 5.841 5.84 5.84 0 01-5.841-5.84 5.84 5.84 0 015.841-5.842 5.84 5.84 0 015.841 5.841zM109.75 57.784a5.84 5.84 0 100-11.682 5.84 5.84 0 000 11.682zM92.432 57.784a5.84 5.84 0 100-11.682 5.84 5.84 0 000 11.682zM75.114 57.784a5.84 5.84 0 100-11.682 5.84 5.84 0 000 11.682zM57.795 57.784a5.84 5.84 0 100-11.682 5.84 5.84 0 000 11.682zM40.477 57.784a5.841 5.841 0 100-11.682 5.841 5.841 0 000 11.682zM23.16 57.784a5.841 5.841 0 10-.001-11.682 5.841 5.841 0 000 11.682zM5.84 57.784a5.84 5.84 0 100-11.682 5.84 5.84 0 000 11.682zM150.227 51.943a5.839 5.839 0 01-5.841 5.841 5.84 5.84 0 01-5.841-5.84 5.84 5.84 0 015.841-5.842 5.839 5.839 0 015.841 5.841zM132.909 67.318a5.84 5.84 0 01-5.841 5.841 5.84 5.84 0 01-5.841-5.84 5.84 5.84 0 015.841-5.842 5.84 5.84 0 015.841 5.841zM109.75 73.16a5.84 5.84 0 100-11.683 5.84 5.84 0 000 11.682zM92.432 73.16a5.84 5.84 0 100-11.683 5.84 5.84 0 000 11.682zM75.114 73.16a5.84 5.84 0 100-11.683 5.84 5.84 0 000 11.682zM57.795 73.16a5.84 5.84 0 100-11.683 5.84 5.84 0 000 11.682zM40.477 73.16a5.84 5.84 0 100-11.683 5.84 5.84 0 000 11.682zM23.16 73.16a5.84 5.84 0 100-11.683 5.84 5.84 0 000 11.682zM5.84 73.16a5.84 5.84 0 10.001-11.683 5.84 5.84 0 000 11.682zM150.227 67.318a5.839 5.839 0 01-5.841 5.841 5.84 5.84 0 01-5.841-5.84 5.84 5.84 0 015.841-5.842 5.839 5.839 0 015.841 5.841zM132.909 82.682a5.84 5.84 0 01-5.841 5.84 5.84 5.84 0 01-5.841-5.84 5.84 5.84 0 015.841-5.841 5.84 5.84 0 015.841 5.84zM109.75 88.523a5.84 5.84 0 100-11.682 5.84 5.84 0 000 11.682zM92.432 88.523a5.84 5.84 0 100-11.682 5.84 5.84 0 000 11.682zM75.114 88.523a5.84 5.84 0 100-11.682 5.84 5.84 0 000 11.682zM57.795 88.523a5.84 5.84 0 100-11.682 5.84 5.84 0 000 11.682zM40.477 88.523a5.841 5.841 0 100-11.682 5.841 5.841 0 000 11.682zM23.16 88.523a5.841 5.841 0 10-.001-11.682 5.841 5.841 0 000 11.682zM5.84 88.523a5.84 5.84 0 100-11.682 5.84 5.84 0 000 11.682zM150.227 82.682a5.839 5.839 0 01-5.841 5.84 5.84 5.84 0 01-5.841-5.84 5.84 5.84 0 015.841-5.841 5.839 5.839 0 015.841 5.84zM132.909 98.057a5.84 5.84 0 01-5.841 5.841 5.84 5.84 0 01-5.841-5.841 5.84 5.84 0 015.841-5.841 5.84 5.84 0 015.841 5.84zM115.591 98.057a5.84 5.84 0 01-5.841 5.841 5.84 5.84 0 01-5.841-5.841 5.84 5.84 0 015.841-5.841 5.84 5.84 0 015.841 5.84zM98.273 98.057a5.84 5.84 0 01-5.841 5.841 5.84 5.84 0 01-5.841-5.841 5.84 5.84 0 015.84-5.841 5.84 5.84 0 015.842 5.84zM80.954 98.057a5.84 5.84 0 01-5.84 5.841 5.84 5.84 0 01-5.841-5.841 5.84 5.84 0 015.84-5.841 5.84 5.84 0 015.841 5.84zM63.636 98.057a5.84 5.84 0 01-5.84 5.841 5.84 5.84 0 01-5.841-5.841 5.84 5.84 0 015.84-5.841 5.84 5.84 0 015.841 5.84zM46.318 98.057a5.84 5.84 0 01-5.84 5.841 5.84 5.84 0 01-5.842-5.841 5.84 5.84 0 015.841-5.841 5.84 5.84 0 015.841 5.84zM29 98.057a5.84 5.84 0 01-5.84 5.841 5.84 5.84 0 01-5.842-5.841 5.84 5.84 0 015.841-5.841A5.84 5.84 0 0129 98.056zM11.693 98.057a5.84 5.84 0 01-5.84 5.841A5.84 5.84 0 01.01 98.057a5.84 5.84 0 015.841-5.841 5.84 5.84 0 015.841 5.84zM150.227 98.057a5.839 5.839 0 01-5.841 5.841 5.84 5.84 0 01-5.841-5.841 5.84 5.84 0 015.841-5.841 5.839 5.839 0 015.841 5.84zM132.909 113.42a5.839 5.839 0 01-5.841 5.841 5.839 5.839 0 01-5.841-5.841 5.839 5.839 0 015.841-5.84 5.839 5.839 0 015.841 5.84zM115.591 113.42a5.839 5.839 0 01-5.841 5.841 5.839 5.839 0 01-5.841-5.841 5.839 5.839 0 015.841-5.84 5.839 5.839 0 015.841 5.84zM98.273 113.42a5.839 5.839 0 01-5.841 5.841 5.839 5.839 0 01-5.841-5.841 5.838 5.838 0 015.84-5.84 5.838 5.838 0 015.842 5.84zM80.954 113.42a5.839 5.839 0 01-5.84 5.841 5.839 5.839 0 01-5.841-5.841 5.838 5.838 0 015.84-5.84 5.838 5.838 0 015.841 5.84zM63.636 113.42a5.839 5.839 0 01-5.84 5.841 5.839 5.839 0 01-5.841-5.841 5.839 5.839 0 015.84-5.84 5.838 5.838 0 015.841 5.84zM46.318 113.42a5.839 5.839 0 01-5.84 5.841 5.839 5.839 0 01-5.842-5.841 5.838 5.838 0 015.841-5.84 5.839 5.839 0 015.841 5.84zM29 113.42a5.839 5.839 0 01-5.84 5.841 5.839 5.839 0 01-5.842-5.841 5.838 5.838 0 015.841-5.84A5.838 5.838 0 0129 113.42zM11.693 113.42a5.839 5.839 0 01-5.84 5.841A5.839 5.839 0 01.01 113.42a5.838 5.838 0 015.841-5.84 5.839 5.839 0 015.841 5.84zM150.227 113.42a5.838 5.838 0 01-5.841 5.841 5.839 5.839 0 01-5.841-5.841 5.839 5.839 0 015.841-5.84 5.838 5.838 0 015.841 5.84z" fill="#E2E2E2"/><path d="M132.909 128.784a5.84 5.84 0 01-5.841 5.841 5.84 5.84 0 01-5.841-5.841 5.84 5.84 0 015.841-5.841 5.84 5.84 0 015.841 5.841z" fill="#9F8576"/><path d="M109.75 134.625a5.84 5.84 0 100-11.682 5.84 5.84 0 000 11.682zM92.432 134.625a5.84 5.84 0 100-11.682 5.84 5.84 0 000 11.682zM75.114 134.625a5.84 5.84 0 100-11.682 5.84 5.84 0 000 11.682zM57.795 134.625a5.84 5.84 0 100-11.682 5.84 5.84 0 000 11.682zM40.477 134.625a5.84 5.84 0 100-11.682 5.84 5.84 0 000 11.682zM23.16 134.625a5.84 5.84 0 100-11.682 5.84 5.84 0 000 11.682zM5.84 134.625a5.84 5.84 0 100-11.682 5.84 5.84 0 000 11.682z" fill="#E2E2E2"/><path d="M150.227 128.784a5.839 5.839 0 01-5.841 5.841 5.84 5.84 0 01-5.841-5.841 5.84 5.84 0 015.841-5.841 5.839 5.839 0 015.841 5.841z" fill="#9F8576"/><path d="M132.909 5.84a5.84 5.84 0 01-5.841 5.842 5.84 5.84 0 01-5.841-5.841A5.84 5.84 0 01127.068 0a5.84 5.84 0 015.841 5.84zM115.591 5.84a5.84 5.84 0 01-5.841 5.842 5.84 5.84 0 01-5.841-5.841A5.84 5.84 0 01109.75 0a5.84 5.84 0 015.841 5.84zM98.273 5.84a5.839 5.839 0 01-5.841 5.842A5.839 5.839 0 0186.59 5.84 5.84 5.84 0 0192.43 0a5.84 5.84 0 015.842 5.84zM80.954 5.84a5.839 5.839 0 01-5.84 5.842 5.839 5.839 0 01-5.841-5.841A5.84 5.84 0 0175.113 0a5.84 5.84 0 015.841 5.84zM63.636 5.84a5.839 5.839 0 01-5.84 5.842 5.84 5.84 0 01-5.841-5.841A5.84 5.84 0 0157.794 0a5.84 5.84 0 015.841 5.84zM46.318 5.84a5.84 5.84 0 01-5.84 5.842 5.839 5.839 0 01-5.842-5.841A5.84 5.84 0 0140.477 0a5.84 5.84 0 015.841 5.84zM29 5.84a5.839 5.839 0 01-5.84 5.842 5.839 5.839 0 01-5.842-5.841A5.84 5.84 0 0123.16 0 5.84 5.84 0 0129 5.84zM11.693 5.84a5.84 5.84 0 01-5.84 5.842C2.624 11.682 0 9.068 0 5.84A5.84 5.84 0 015.84 0a5.84 5.84 0 015.842 5.84h.011zM150.227 5.84a5.839 5.839 0 01-5.841 5.842 5.84 5.84 0 01-5.841-5.841A5.84 5.84 0 01144.386 0a5.839 5.839 0 015.841 5.84z" fill="#E2E2E2"/><path d="M132.909 144.159a5.84 5.84 0 01-5.841 5.841 5.84 5.84 0 01-5.841-5.841 5.84 5.84 0 015.841-5.841 5.84 5.84 0 015.841 5.841z" fill="#9F8576"/><path d="M109.75 150a5.84 5.84 0 100-11.682 5.84 5.84 0 000 11.682zM92.432 150a5.84 5.84 0 100-11.682 5.84 5.84 0 000 11.682zM75.114 150a5.84 5.84 0 100-11.682 5.84 5.84 0 000 11.682zM57.795 150a5.84 5.84 0 100-11.682 5.84 5.84 0 000 11.682zM40.477 150a5.84 5.84 0 100-11.682 5.84 5.84 0 000 11.682zM23.16 150a5.84 5.84 0 100-11.682 5.84 5.84 0 000 11.682zM5.84 150a5.84 5.84 0 100-11.682 5.84 5.84 0 000 11.682z" fill="#E2E2E2"/><path d="M150.227 144.159a5.839 5.839 0 01-5.841 5.841 5.84 5.84 0 01-5.841-5.841 5.84 5.84 0 015.841-5.841 5.839 5.839 0 015.841 5.841z" fill="#9F8576"/></g><defs><clipPath id="awclip0_249_1053"><path fill="#fff" d="M0 0h150.227v150H0z"/></clipPath></defs></symbol><symbol viewBox="0 0 20 17" id="tg" xmlns="http://www.w3.org/2000/svg"><path d="M7.876 11.259l-.327 4.406c.466 0 .67-.193.913-.426l2.19-2.009 4.535 3.19c.832.443 1.418.21 1.641-.737l2.98-13.395c.265-1.176-.444-1.639-1.253-1.346L1.052 7.375C-.143 7.819-.124 8.458.847 8.747l4.474 1.335 10.394-6.244c.49-.31.932-.14.566.174l-8.405 7.247z"/></symbol><symbol viewBox="0 0 20 17" fill="none" id="tg-blue" xmlns="http://www.w3.org/2000/svg"><path d="M7.876 10.703l-.327 4.406c.466 0 .67-.193.913-.426l2.19-2.008 4.535 3.188c.832.444 1.418.211 1.641-.736l2.98-13.395C20.072.556 19.363.093 18.554.386L1.052 6.819C-.143 7.263-.124 7.903.847 8.19l4.474 1.336 10.394-6.245c.49-.31.932-.14.566.174l-8.405 7.247z" fill="#63B6EC"/></symbol><symbol viewBox="0 0 20 21" id="vac" xmlns="http://www.w3.org/2000/svg"><path d="M8.378 10.961a4.75 4.75 0 10.497-9.487 4.75 4.75 0 00-.497 9.487zM11.46 12.709l-6.325-.332a3.959 3.959 0 00-4.16 3.746 2.375 2.375 0 002.247 2.496l9.487.497a2.375 2.375 0 002.496-2.247 3.958 3.958 0 00-3.745-4.16zM17.949 9.877L15.9 9.77l.25-.217a.796.796 0 00-1.065-1.181L13.422 9.87a.789.789 0 00-.058 1.123l1.498 1.664a.789.789 0 001.123.059.792.792 0 00.058-1.123l-.225-.242 2.048.107a.791.791 0 10.083-1.58z"/></symbol><symbol viewBox="0 0 36 21" id="vk-big" xmlns="http://www.w3.org/2000/svg"><path d="M35.668 18.808a2.364 2.364 0 00-.121-.228c-.62-1.095-1.804-2.44-3.552-4.034l-.037-.036-.018-.018-.019-.019h-.019c-.793-.742-1.295-1.24-1.506-1.496-.385-.487-.47-.98-.26-1.479.148-.377.706-1.174 1.673-2.39.509-.645.911-1.162 1.209-1.552 2.144-2.798 3.074-4.587 2.789-5.366l-.11-.182c-.075-.11-.267-.21-.577-.3-.31-.092-.707-.107-1.19-.046l-5.356.036c-.086-.03-.21-.027-.372.01l-.242.054-.093.046-.074.055a.82.82 0 00-.204.191 1.245 1.245 0 00-.186.32 29.554 29.554 0 01-1.99 4.106c-.458.754-.88 1.408-1.264 1.962-.385.553-.707.961-.967 1.223-.26.261-.496.47-.707.63-.21.158-.372.225-.483.2a13.92 13.92 0 01-.317-.073 1.223 1.223 0 01-.418-.447 1.974 1.974 0 01-.213-.712 7.721 7.721 0 01-.066-.74c-.006-.206-.003-.498.01-.875.013-.378.018-.633.018-.767 0-.462.01-.964.028-1.506.019-.541.034-.97.047-1.286.012-.316.018-.651.018-1.004s-.022-.63-.065-.83a2.799 2.799 0 00-.195-.585.989.989 0 00-.38-.438 2.171 2.171 0 00-.624-.246C19.178.84 18.341.76 17.325.749c-2.306-.025-3.787.122-4.444.438-.26.134-.496.316-.707.547-.223.268-.254.414-.093.438.744.11 1.27.371 1.58.785l.112.22c.087.157.174.437.26.839.087.401.143.845.168 1.332.062.888.062 1.649 0 2.281-.062.633-.121 1.126-.177 1.479-.056.352-.14.638-.251.857a3.596 3.596 0 01-.223.402.319.319 0 01-.093.091c-.161.06-.329.091-.502.091-.174 0-.385-.085-.632-.255a4.435 4.435 0 01-.772-.703c-.267-.298-.567-.715-.902-1.25a21.705 21.705 0 01-1.041-1.898l-.298-.53c-.186-.34-.44-.836-.762-1.487a28.416 28.416 0 01-.855-1.89c-.1-.255-.248-.45-.447-.583l-.093-.055a1.28 1.28 0 00-.297-.155 2.003 2.003 0 00-.428-.119l-5.095.037c-.52 0-.874.115-1.06.347L.2 2.117a.581.581 0 00-.056.292c0 .134.037.298.111.493a59.75 59.75 0 002.427 4.964c.874 1.594 1.633 2.878 2.278 3.85a45.467 45.467 0 001.97 2.757c.67.864 1.113 1.417 1.33 1.66.217.244.388.427.512.548l.465.438c.297.292.734.642 1.31 1.05.577.407 1.216.809 1.916 1.205.7.395 1.515.717 2.445.966.93.25 1.835.35 2.715.302h2.139c.433-.037.762-.17.985-.402l.074-.091c.05-.073.096-.186.14-.337.043-.152.065-.32.065-.502a5.903 5.903 0 01.12-1.415c.093-.42.199-.735.317-.949.118-.213.251-.392.4-.538.148-.146.254-.234.316-.265.062-.03.111-.05.148-.063.298-.098.648-.003 1.051.283.403.286.781.639 1.135 1.058.353.42.777.892 1.273 1.415.496.523.93.912 1.302 1.168l.372.219c.248.146.57.28.967.402.396.121.743.151 1.041.09l4.76-.072c.47 0 .837-.077 1.097-.229.26-.152.415-.32.465-.501.05-.183.053-.39.01-.621a2.253 2.253 0 00-.131-.484z"/></symbol><symbol viewBox="0 0 50 50" fill="none" id="vk-black" xmlns="http://www.w3.org/2000/svg"><rect width="50" height="50" rx="25" fill="#303030"/><path d="M38.644 30.547a1.802 1.802 0 00-.091-.172c-.465-.821-1.353-1.83-2.664-3.025l-.028-.027-.013-.014-.014-.013h-.015c-.594-.557-.971-.931-1.129-1.123-.289-.365-.353-.735-.196-1.109.112-.283.53-.88 1.256-1.793.381-.484.683-.871.906-1.163 1.609-2.1 2.306-3.44 2.092-4.025l-.083-.136c-.056-.082-.2-.158-.432-.226-.233-.069-.53-.08-.893-.034l-4.016.027a.53.53 0 00-.28.007l-.18.041-.07.034-.056.041a.617.617 0 00-.154.144.933.933 0 00-.139.24 22.166 22.166 0 01-1.492 3.08c-.344.565-.66 1.056-.949 1.47-.288.416-.53.722-.725.918a5.01 5.01 0 01-.53.472c-.158.119-.279.17-.362.15a10.677 10.677 0 01-.238-.054.917.917 0 01-.313-.335 1.482 1.482 0 01-.16-.534 5.796 5.796 0 01-.05-.555 11.44 11.44 0 01.008-.657c.01-.283.014-.474.014-.575 0-.346.007-.723.02-1.129l.035-.965c.01-.237.014-.488.014-.753s-.016-.472-.049-.623a2.101 2.101 0 00-.146-.438.743.743 0 00-.285-.328 1.63 1.63 0 00-.468-.185c-.492-.11-1.12-.169-1.883-.178-1.729-.018-2.84.091-3.333.329-.195.1-.372.237-.53.41-.167.2-.19.31-.07.329.558.082.953.278 1.186.588l.084.165c.065.118.13.328.195.63.065.3.107.633.125.998a10.46 10.46 0 010 1.711c-.046.475-.09.844-.132 1.11-.042.264-.105.478-.188.642-.084.165-.14.265-.168.301a.24.24 0 01-.07.069c-.12.045-.246.069-.376.069s-.288-.064-.474-.192a3.321 3.321 0 01-.579-.527 7.049 7.049 0 01-.676-.938 16.257 16.257 0 01-.781-1.424l-.223-.396a33.73 33.73 0 01-.572-1.116 21.32 21.32 0 01-.642-1.417.904.904 0 00-.334-.438l-.07-.041a.965.965 0 00-.223-.117 1.505 1.505 0 00-.321-.088l-3.821.027c-.39 0-.656.087-.795.26l-.056.082a.436.436 0 00-.042.22c0 .1.028.223.084.369a44.857 44.857 0 001.82 3.723c.655 1.195 1.225 2.159 1.708 2.888.483.73.976 1.42 1.478 2.067.502.648.835 1.063.997 1.246.163.183.291.32.384.41l.349.329c.223.219.55.481.983.787.432.306.911.607 1.436.904a7.873 7.873 0 001.834.725 6.454 6.454 0 002.037.226h1.603c.326-.028.572-.128.74-.301l.055-.069a.901.901 0 00.105-.253c.032-.114.048-.24.048-.376-.01-.393.021-.746.09-1.061.07-.315.15-.552.238-.712.089-.16.189-.294.3-.403.111-.11.19-.176.237-.199a.937.937 0 01.111-.048c.224-.073.486-.002.789.212.302.215.585.48.85.794.265.315.584.669.956 1.061.372.393.697.684.976.876l.279.165c.186.11.428.21.725.3.297.092.558.115.781.07l3.57-.055c.353 0 .628-.058.823-.172.195-.114.311-.24.349-.376a1.04 1.04 0 00.007-.466 1.694 1.694 0 00-.098-.362z" fill="#fff"/></symbol><symbol viewBox="0 0 25 14" fill="none" id="vk-small" xmlns="http://www.w3.org/2000/svg"><path d="M23.984 12.24a1.54 1.54 0 00-.079-.148c-.402-.712-1.172-1.586-2.308-2.622l-.024-.024-.012-.011-.012-.012h-.013c-.515-.483-.842-.807-.979-.973-.25-.316-.306-.637-.169-.961.097-.245.46-.763 1.088-1.554.33-.42.592-.755.785-1.008 1.395-1.82 1.999-2.982 1.814-3.488l-.073-.119c-.048-.07-.173-.136-.374-.195-.202-.06-.46-.07-.774-.03l-3.48.024a.46.46 0 00-.242.006l-.158.035-.06.03-.048.036a.533.533 0 00-.133.124.812.812 0 00-.121.208c-.379.957-.81 1.847-1.293 2.669-.299.49-.572.915-.822 1.275-.25.36-.46.625-.629.795-.17.17-.322.306-.46.41-.136.102-.24.146-.313.13a8.942 8.942 0 01-.206-.048.794.794 0 01-.272-.29 1.284 1.284 0 01-.139-.463 5.001 5.001 0 01-.042-.48 9.789 9.789 0 01.006-.57c.008-.245.012-.411.012-.498 0-.3.006-.627.018-.979l.03-.836c.009-.206.012-.423.012-.653 0-.23-.014-.409-.042-.54a1.823 1.823 0 00-.127-.38.643.643 0 00-.247-.284 1.412 1.412 0 00-.405-.16C13.266.56 12.722.51 12.06.502 10.562.486 9.599.58 9.172.787c-.169.086-.322.205-.459.355-.145.174-.165.27-.06.285.483.071.825.241 1.027.51l.072.142c.057.103.113.285.17.546.056.261.092.55.108.866.04.577.04 1.072 0 1.483-.04.411-.078.732-.114.96-.037.23-.091.416-.164.558-.072.143-.12.23-.145.261a.206.206 0 01-.06.06.92.92 0 01-.326.06c-.113 0-.25-.056-.411-.167a2.88 2.88 0 01-.502-.457 6.11 6.11 0 01-.586-.812 14.1 14.1 0 01-.677-1.234l-.193-.344a29.39 29.39 0 01-.496-.967c-.21-.423-.395-.833-.556-1.228a.784.784 0 00-.29-.38l-.06-.035a.833.833 0 00-.194-.101 1.302 1.302 0 00-.278-.077l-3.311.023c-.339 0-.569.076-.69.226l-.048.071a.378.378 0 00-.036.19.93.93 0 00.072.32 38.842 38.842 0 001.578 3.227 36.108 36.108 0 001.48 2.503c.42.633.846 1.23 1.281 1.791.436.562.724.922.864 1.08.142.158.252.277.333.356l.302.284c.194.19.478.418.852.683.375.265.79.526 1.245.783.456.257.985.466 1.59.628a5.593 5.593 0 001.764.196h1.39c.282-.024.496-.11.641-.26l.048-.06a.778.778 0 00.09-.22c.029-.098.043-.207.043-.326-.008-.34.018-.646.078-.919s.13-.478.206-.617a1.517 1.517 0 01.466-.522.799.799 0 01.096-.041c.193-.064.421-.002.683.184.262.186.508.415.738.688.23.273.505.58.827.92.323.34.605.592.846.758l.242.143c.161.095.37.182.629.261.257.079.483.099.676.06l3.095-.048c.306 0 .544-.05.713-.149.169-.098.27-.207.302-.326a.903.903 0 00.006-.403 1.47 1.47 0 00-.085-.315z"/></symbol><symbol fill="none" viewBox="0 0 16 16" id="warning" xmlns="http://www.w3.org/2000/svg"><path d="M8.895 5.83V13H7.111V5.83h1.784zM7 3.96c0-.277.09-.507.272-.688C7.452 3.09 7.695 3 8 3c.3 0 .541.09.722.272.185.18.278.41.278.689a.923.923 0 01-.278.69c-.18.18-.422.27-.722.27-.305 0-.547-.09-.728-.27A.934.934 0 017 3.96z" fill="#C5C5C5"/><rect x=".5" y=".5" width="15" height="15" rx="7.5" stroke="#C5C5C5"/></symbol><symbol viewBox="0 0 31 21" id="yt" xmlns="http://www.w3.org/2000/svg"><path fill-rule="evenodd" clip-rule="evenodd" d="M3.85 20.155c-.523-.155-1-.43-1.391-.802a3.316 3.316 0 01-.856-1.339c-.98-2.618-1.27-13.552.616-15.71A3.657 3.657 0 014.684 1.1c5.056-.53 20.68-.46 22.474.177.504.16.965.43 1.348.788.383.358.678.797.863 1.282 1.07 2.707 1.105 12.544-.145 15.145a3.384 3.384 0 01-1.577 1.557c-1.885.92-21.296.902-23.797.106zm8.029-5.13l9.062-4.6-9.062-4.636v9.235z"/></symbol></svg>