<svg xmlns="http://www.w3.org/2000/svg" viewBox="0 0 20 21" >
    <path d="M8.37759 11.4534C10.9973 11.5906 13.2324 9.57821 13.3697 6.95846C13.507 4.3387 11.4945 2.10366 8.87478 1.96637C6.25502 1.82907 4.01999 3.84151 3.88269 6.46126C3.7454 9.08102 5.75783 11.3161 8.37759 11.4534Z" />
    <path d="M11.4596 13.2007L5.13498 12.8693C4.61587 12.8421 4.09649 12.9174 3.60649 13.0909C3.11649 13.2644 2.66547 13.5327 2.27917 13.8806C1.49901 14.583 1.02985 15.5666 0.974905 16.615C0.941939 17.244 1.1602 17.8604 1.58168 18.3285C2.00316 18.7966 2.59333 19.0781 3.22235 19.1111L12.7093 19.6083C13.3384 19.6412 13.9547 19.423 14.4228 19.0015C14.8909 18.58 15.1724 17.9898 15.2054 17.3608C15.2603 16.3124 14.8965 15.2852 14.1941 14.505C13.4916 13.7248 12.508 13.2557 11.4596 13.2007Z" />
    <path d="M17.9487 10.3694L15.9011 10.2621L16.1503 10.0452C16.2278 9.97537 16.2909 9.89092 16.3358 9.7967C16.3808 9.70248 16.4067 9.60033 16.4122 9.49609C16.4176 9.39184 16.4025 9.28754 16.3677 9.18914C16.3328 9.09074 16.2789 9.00017 16.2091 8.92259C16.1392 8.84502 16.0548 8.78196 15.9606 8.73702C15.8664 8.69208 15.7642 8.66613 15.66 8.66067C15.5557 8.65521 15.4514 8.67033 15.353 8.70518C15.2546 8.74002 15.164 8.79391 15.0865 8.86376L13.4224 10.3621C13.3445 10.4317 13.2811 10.516 13.2359 10.6103C13.1907 10.7045 13.1646 10.8067 13.1592 10.9111C13.1537 11.0155 13.1689 11.1199 13.204 11.2183C13.2391 11.3168 13.2934 11.4073 13.3636 11.4847L14.8619 13.1487C14.9315 13.2267 15.0159 13.2901 15.1101 13.3352C15.2043 13.3804 15.3066 13.4065 15.411 13.412C15.5153 13.4174 15.6197 13.4022 15.7182 13.3671C15.8166 13.332 15.9071 13.2778 15.9845 13.2075C16.0625 13.1379 16.1259 13.0536 16.1711 12.9593C16.2162 12.8651 16.2423 12.7629 16.2478 12.6585C16.2533 12.5541 16.238 12.4497 16.2029 12.3513C16.1678 12.2528 16.1136 12.1623 16.0434 12.0849L15.8182 11.8432L17.8658 11.9505C18.0755 11.9615 18.2809 11.8888 18.437 11.7483C18.593 11.6078 18.6868 11.4111 18.6978 11.2014C18.7088 10.9917 18.6361 10.7863 18.4956 10.6302C18.3551 10.4742 18.1583 10.3804 17.9487 10.3694Z" />
</svg>
