<svg viewBox="0 0 40 40" xmlns="http://www.w3.org/2000/svg">
<path d="M22.2003 23.6099L20.2078 24.6499C18.1602 25.7424 15.5677 25.2224 14.0552 23.4099L13.0752 22.2349C12.2452 21.2349 12.3127 19.7873 13.2327 18.8698L19.3377 12.7648L18.1352 12.0573C17.9427 11.9448 17.7227 11.8848 17.5002 11.8848H12.9602L13.6177 10.5698C13.9277 9.95227 13.6752 9.20226 13.0577 8.89226L9.30767 7.01724C8.69267 6.70974 7.94266 6.95974 7.63266 7.57725L0.132599 22.5774C-0.177403 23.1949 0.0750988 23.9449 0.692604 24.2549L4.44263 26.1299C4.62013 26.2199 4.81014 26.2599 5.00014 26.2599C5.46014 26.2599 5.90014 26.0049 6.12015 25.5699L6.54515 24.7224L16.2377 31.8899C17.3452 32.7074 18.6652 33.115 19.9828 33.115C21.3228 33.115 22.6578 32.6924 23.7653 31.8499L28.1153 28.5099L22.2003 23.6099Z" />
<path d="M39.8677 22.5768L32.3676 7.57672C32.0576 6.95672 31.3101 6.70922 30.6901 7.01672L26.9401 8.89173C26.3226 9.20173 26.0726 9.95174 26.3801 10.5692L27.0401 11.8843H23.7526L15 20.6343L15.9775 21.8093C16.7325 22.7143 18.02 22.9793 19.0425 22.4368L22.5201 20.6243L30.1576 26.9519L33.3476 24.4919L33.8851 25.5669C34.1051 26.0044 34.5477 26.2569 35.0027 26.2569C35.1902 26.2569 35.3802 26.2144 35.5627 26.1244L39.3127 24.2494C39.9277 23.9443 40.1752 23.1943 39.8677 22.5768Z" />
</svg>
