<svg xmlns="http://www.w3.org/2000/svg" viewBox="0 0 50 50" fill="none">
  <rect width="50" height="50" rx="25" fill="#303030"/>
  <path d="M34 31.1111V29.5566C34 28.7843 33.5298 28.0896 32.8126 27.8028L30.8915 27.0344C29.9794 26.6695 28.9399 27.0647 28.5005 27.9434L28.3333 28.2778C28.3333 28.2778 25.9722 27.8056 24.0833 25.9167C22.1944 24.0278 21.7222 21.6667 21.7222 21.6667L22.0566 21.4995C22.9352 21.0602 23.3305 20.0206 22.9656 19.1085L22.1972 17.1874C21.9103 16.4702 21.2158 16 20.4434 16H18.8889C17.8457 16 17 16.8457 17 17.8889C17 26.2346 23.7654 33 32.1111 33C33.1543 33 34 32.1543 34 31.1111Z" fill="white"/>
</svg>
