<svg width="30" height="23" viewBox="0 0 30 23" fill="none" xmlns="http://www.w3.org/2000/svg">
<path d="M27 1.83333C28.6667 3.66667 29.6667 5.66667 29.6667 9C29.6667 14.8333 25.5 20 19.6667 22.6667L18.1667 20.5C23.6667 17.5 24.8333 13.6667 25.1667 11.1667C24.3333 11.6667 23.1667 11.8333 22 11.6667C19 11.3333 16.6667 9 16.6667 5.83333C16.6667 4.33333 17.3333 2.83333 18.3333 1.66667C19.5 0.5 20.8333 0 22.5 0C24.3333 0 26 0.833334 27 1.83333ZM10.3333 1.83333C12 3.66667 13 5.66667 13 9C13 14.8333 8.83333 20 3 22.6667L1.5 20.5C7 17.5 8.16667 13.6667 8.5 11.1667C7.66667 11.6667 6.5 11.8333 5.33333 11.6667C2.33333 11.3333 0 8.83333 0 5.83333C0 4.33333 0.666667 2.83333 1.66667 1.66667C2.83333 0.5 4.16667 0 5.83333 0C7.66667 0 9.33333 0.833334 10.3333 1.83333Z" fill="#ECCD75"/>
</svg>
