<svg xmlns="http://www.w3.org/2000/svg" viewBox="0 0 20 21" >
    <path d="M8.37765 10.9613C10.9974 11.0986 13.2324 9.08621 13.3697 6.46645C13.507 3.84669 11.4946 1.61166 8.87484 1.47436C6.25508 1.33707 4.02005 3.3495 3.88275 5.96926C3.74546 8.58902 5.75789 10.8241 8.37765 10.9613Z" />
    <path d="M11.4597 12.7087L5.13504 12.3773C4.61593 12.3501 4.09656 12.4254 3.60656 12.5989C3.11656 12.7724 2.66553 13.0407 2.27923 13.3886C1.49907 14.091 1.02991 15.0746 0.974966 16.123C0.942 16.752 1.16026 17.3684 1.58174 17.8365C2.00322 18.3046 2.59339 18.5861 3.22241 18.6191L12.7094 19.1162C13.3384 19.1492 13.9548 18.9309 14.4229 18.5095C14.891 18.088 15.1725 17.4978 15.2054 16.8688C15.2604 15.8204 14.8966 14.7932 14.1941 14.013C13.4917 13.2328 12.5081 12.7637 11.4597 12.7087Z" />
    <path d="M17.9487 9.87736L15.9011 9.77005L16.1503 9.55321C16.2279 9.48336 16.2909 9.39892 16.3359 9.3047C16.3808 9.21048 16.4068 9.10833 16.4122 9.00408C16.4177 8.89984 16.4026 8.79554 16.3677 8.69714C16.3329 8.59874 16.279 8.50816 16.2091 8.43059C16.1393 8.35301 16.0549 8.28995 15.9606 8.24501C15.8664 8.20007 15.7643 8.17413 15.66 8.16867C15.5558 8.1632 15.4515 8.17833 15.3531 8.21317C15.2547 8.24802 15.1641 8.3019 15.0865 8.37175L13.4225 9.87005C13.3445 9.93966 13.2811 10.024 13.236 10.1183C13.1908 10.2125 13.1647 10.3147 13.1592 10.4191C13.1538 10.5235 13.169 10.6279 13.2041 10.7263C13.2392 10.8248 13.2934 10.9153 13.3637 10.9927L14.862 12.6567C14.9316 12.7347 15.0159 12.7981 15.1102 12.8432C15.2044 12.8884 15.3066 12.9145 15.411 12.92C15.5154 12.9254 15.6198 12.9102 15.7182 12.8751C15.8167 12.84 15.9072 12.7858 15.9846 12.7155C16.0625 12.6459 16.1259 12.5616 16.1711 12.4673C16.2163 12.3731 16.2424 12.2708 16.2479 12.1665C16.2533 12.0621 16.2381 11.9577 16.203 11.8593C16.1679 11.7608 16.1137 11.6703 16.0434 11.5929L15.8183 11.3512L17.8659 11.4585C18.0755 11.4695 18.281 11.3968 18.437 11.2563C18.5931 11.1158 18.6869 10.9191 18.6979 10.7094C18.7089 10.4997 18.6361 10.2942 18.4956 10.1382C18.3551 9.98218 18.1584 9.88835 17.9487 9.87736Z" />
</svg>
