<svg xmlns="http://www.w3.org/2000/svg" viewBox="0 0 50 50" fill="none">
  <rect width="50" height="50" rx="25" fill="#303030"/>
  <path d="M38.6437 30.5466C38.6112 30.478 38.581 30.4211 38.5529 30.3755C38.0882 29.554 37.2001 28.5456 35.8892 27.3502L35.8615 27.3228L35.8476 27.3094L35.8336 27.2956H35.8195C35.2246 26.7389 34.8478 26.3646 34.69 26.173C34.4013 25.8079 34.3367 25.4384 34.4944 25.064C34.6059 24.7812 35.0246 24.1838 35.7496 23.271C36.131 22.7873 36.433 22.3997 36.656 22.1076C38.2646 20.0086 38.962 18.6673 38.748 18.0832L38.665 17.9467C38.6091 17.8645 38.465 17.7893 38.2329 17.7208C38.0001 17.6524 37.7027 17.641 37.34 17.6866L33.3236 17.7139C33.2586 17.6912 33.1657 17.6934 33.0446 17.7208C32.9237 17.7482 32.8632 17.762 32.8632 17.762L32.7933 17.7962L32.7379 17.8374C32.6914 17.8647 32.6402 17.9126 32.5844 17.981C32.5288 18.0492 32.4824 18.1293 32.4453 18.2205C32.008 19.3248 31.5108 20.3514 30.9528 21.3004C30.6088 21.8663 30.2929 22.3567 30.0043 22.7719C29.7162 23.1871 29.4744 23.4929 29.2793 23.6889C29.084 23.8852 28.9076 24.0424 28.7493 24.1611C28.5911 24.2799 28.4704 24.3301 28.3869 24.3118C28.3031 24.2934 28.2242 24.2752 28.1495 24.257C28.0194 24.1748 27.9148 24.063 27.8359 23.9216C27.7567 23.7802 27.7033 23.6022 27.6754 23.3877C27.6477 23.1731 27.6313 22.9885 27.6266 22.8333C27.6223 22.6783 27.6243 22.4591 27.6337 22.1762C27.6434 21.8932 27.6477 21.7017 27.6477 21.6013C27.6477 21.2545 27.6546 20.8781 27.6684 20.472C27.6825 20.0659 27.6939 19.7441 27.7034 19.5071C27.7129 19.2698 27.7173 19.0188 27.7173 18.7541C27.7173 18.4895 27.7008 18.2819 27.6684 18.1313C27.6364 17.9808 27.5872 17.8348 27.5224 17.6932C27.4571 17.5518 27.3617 17.4424 27.2365 17.3647C27.111 17.2871 26.955 17.2256 26.7693 17.1798C26.2765 17.0704 25.6489 17.0112 24.8864 17.0019C23.1571 16.9837 22.046 17.0933 21.5533 17.3306C21.358 17.4309 21.1813 17.5678 21.0234 17.7411C20.856 17.9419 20.8326 18.0515 20.9535 18.0696C21.5114 18.1516 21.9064 18.3478 22.1388 18.6581L22.2226 18.8225C22.2878 18.9411 22.3528 19.1511 22.4179 19.4522C22.483 19.7533 22.5249 20.0863 22.5434 20.4512C22.5898 21.1175 22.5898 21.6878 22.5434 22.1623C22.4968 22.6369 22.4529 23.0064 22.4109 23.2711C22.369 23.5358 22.3062 23.7502 22.2226 23.9144C22.1388 24.0787 22.0831 24.1791 22.0552 24.2155C22.0273 24.2519 22.004 24.2749 21.9856 24.2839C21.8647 24.3294 21.739 24.3525 21.6089 24.3525C21.4787 24.3525 21.3207 24.2886 21.1348 24.1608C20.9489 24.0329 20.756 23.8574 20.5561 23.6337C20.3562 23.4101 20.1307 23.0975 19.8796 22.6961C19.6286 22.2946 19.3683 21.8201 19.0986 21.2725L18.8756 20.8755C18.7361 20.62 18.5456 20.2481 18.3039 19.7599C18.062 19.2716 17.8482 18.7993 17.6623 18.343C17.588 18.1514 17.4764 18.0055 17.3276 17.9051L17.2578 17.8639C17.2114 17.8275 17.1369 17.7888 17.0348 17.7475C16.9324 17.7063 16.8256 17.6768 16.714 17.6586L12.8927 17.6859C12.5022 17.6859 12.2373 17.7727 12.0978 17.9461L12.042 18.0281C12.0141 18.0738 12 18.1468 12 18.2473C12 18.3476 12.0279 18.4709 12.0837 18.6168C12.6416 19.9036 13.2482 21.1446 13.9036 22.3401C14.559 23.5355 15.1286 24.4985 15.6119 25.2281C16.0954 25.9582 16.5882 26.6473 17.0903 27.2951C17.5923 27.943 17.9247 28.3583 18.0873 28.5407C18.2501 28.7235 18.378 28.8601 18.471 28.9513L18.8197 29.2798C19.0428 29.4989 19.3705 29.7612 19.8028 30.0669C20.2353 30.3727 20.714 30.6738 21.2393 30.9706C21.7647 31.267 22.3759 31.5088 23.0733 31.6958C23.7706 31.883 24.4493 31.9582 25.1095 31.9219H26.7133C27.0386 31.8944 27.285 31.794 27.4525 31.6207L27.508 31.5521C27.5453 31.4976 27.5802 31.413 27.6125 31.2991C27.6451 31.1851 27.6613 31.0594 27.6613 30.9227C27.6518 30.5304 27.6822 30.1768 27.7518 29.862C27.8213 29.5473 27.9005 29.31 27.9891 29.1502C28.0777 28.9906 28.1776 28.8558 28.2889 28.7466C28.4003 28.6372 28.4798 28.5709 28.5264 28.548C28.5727 28.5251 28.6096 28.5095 28.6375 28.5001C28.8607 28.4272 29.1233 28.4978 29.4257 28.7125C29.728 28.9269 30.0114 29.1917 30.2766 29.5064C30.5415 29.8214 30.8599 30.1748 31.2318 30.5672C31.6038 30.9596 31.9291 31.2514 32.208 31.4433L32.4868 31.6076C32.673 31.7172 32.9147 31.8176 33.2123 31.9088C33.5093 32 33.7696 32.0228 33.9931 31.9772L37.5632 31.9226C37.9163 31.9226 38.191 31.8652 38.3859 31.7513C38.5812 31.6372 38.6972 31.5116 38.7347 31.3749C38.772 31.2381 38.774 31.0828 38.7417 30.9092C38.7087 30.7361 38.6761 30.6151 38.6437 30.5466Z" fill="white"/>
</svg>
