<svg xmlns="http://www.w3.org/2000/svg" viewBox="0 0 36 21" >
  <path d="M35.6677 18.8083C35.6245 18.7168 35.5842 18.6409 35.5467 18.5801C34.9271 17.4848 33.743 16.1403 31.9951 14.5463L31.9582 14.5098L31.9397 14.4919L31.921 14.4735H31.9022C31.1089 13.7313 30.6066 13.2322 30.3962 12.9767C30.0113 12.49 29.9251 11.9973 30.1355 11.4981C30.2841 11.121 30.8424 10.3244 31.809 9.10749C32.3175 8.46255 32.7202 7.94564 33.0176 7.55621C35.1623 4.75754 36.0922 2.96915 35.8069 2.19034L35.6961 2.00835C35.6217 1.89878 35.4296 1.79854 35.12 1.70713C34.8097 1.61591 34.4131 1.60082 33.9296 1.66161L28.5744 1.69792C28.4876 1.66775 28.3637 1.67056 28.2023 1.70713C28.0412 1.74369 27.9605 1.76204 27.9605 1.76204L27.8673 1.80775L27.7933 1.86266C27.7313 1.89897 27.6631 1.96283 27.5887 2.05412C27.5146 2.14509 27.4527 2.25184 27.4032 2.37349C26.8202 3.84576 26.1573 5.21461 25.4133 6.47995C24.9546 7.23447 24.5333 7.88837 24.1486 8.44203C23.7644 8.9955 23.4421 9.40328 23.182 9.66467C22.9215 9.92632 22.6863 10.1359 22.4752 10.2943C22.2644 10.4527 22.1034 10.5196 21.992 10.4951C21.8803 10.4706 21.7751 10.4464 21.6755 10.4221C21.5021 10.3125 21.3626 10.1635 21.2574 9.9749C21.1518 9.78632 21.0806 9.54896 21.0435 9.26302C21.0065 8.97689 20.9846 8.73078 20.9783 8.52385C20.9725 8.31718 20.9752 8.02485 20.9878 7.64769C21.0007 7.27033 21.0065 7.01501 21.0065 6.88115C21.0065 6.41871 21.0156 5.91683 21.0341 5.37538C21.0528 4.83393 21.068 4.40492 21.0807 4.08887C21.0933 3.77251 21.0992 3.43779 21.0992 3.08492C21.0992 2.73205 21.0773 2.45532 21.0341 2.25446C20.9914 2.05386 20.9258 1.85914 20.8393 1.67037C20.7524 1.48179 20.6251 1.33591 20.4581 1.23235C20.2908 1.12892 20.0828 1.04684 19.8352 0.985855C19.1782 0.839913 18.3414 0.760964 17.3247 0.748691C15.0191 0.724399 13.5376 0.870533 12.8805 1.1869C12.6202 1.32057 12.3846 1.50321 12.174 1.73423C11.9508 2.00202 11.9197 2.14815 12.0808 2.17219C12.8247 2.28157 13.3514 2.54321 13.6613 2.95688L13.773 3.17608C13.8599 3.33423 13.9466 3.61423 14.0335 4.01568C14.1201 4.41713 14.1761 4.86123 14.2007 5.3477C14.2626 6.23608 14.2626 6.99654 14.2007 7.62915C14.1386 8.26201 14.08 8.75469 14.0241 9.10756C13.9681 9.46043 13.8845 9.74637 13.773 9.96531C13.6613 10.1843 13.587 10.3182 13.5497 10.3668C13.5125 10.4153 13.4815 10.446 13.4569 10.458C13.2958 10.5186 13.1282 10.5495 12.9548 10.5495C12.7811 10.5495 12.5705 10.4642 12.3226 10.2938C12.0748 10.1233 11.8176 9.88924 11.551 9.59109C11.2844 9.29288 10.9838 8.87615 10.6489 8.34083C10.3144 7.80552 9.96723 7.17285 9.60772 6.44281L9.31027 5.91338C9.12433 5.57278 8.87032 5.07685 8.548 4.42602C8.22548 3.77494 7.94041 3.14514 7.69259 2.53676C7.59353 2.28125 7.44471 2.08672 7.24639 1.95286L7.15332 1.89795C7.09145 1.84936 6.99212 1.79778 6.85587 1.7428C6.71943 1.68789 6.57705 1.64851 6.42817 1.62428L1.33316 1.66059C0.81252 1.66059 0.459259 1.77636 0.273249 2.00758L0.198807 2.11696C0.161618 2.17788 0.14286 2.27517 0.14286 2.4091C0.14286 2.54296 0.180049 2.70725 0.254492 2.90177C0.998269 4.61754 1.80711 6.27226 2.68102 7.86618C3.55492 9.46011 4.31433 10.7441 4.95879 11.7169C5.60337 12.6904 6.2604 13.6092 6.92986 14.4728C7.59932 15.3368 8.04247 15.8905 8.25928 16.1337C8.47636 16.3774 8.64686 16.5596 8.77081 16.6812L9.23577 17.1192C9.53328 17.4113 9.97016 17.7611 10.5466 18.1686C11.1232 18.5764 11.7615 18.9778 12.4619 19.3736C13.1625 19.7687 13.9774 20.0912 14.9073 20.3405C15.837 20.5902 16.7419 20.6903 17.6221 20.642H19.7606C20.1943 20.6052 20.5229 20.4714 20.7462 20.2404L20.8202 20.1489C20.87 20.0763 20.9165 19.9634 20.9595 19.8116C21.003 19.6595 21.0246 19.492 21.0246 19.3097C21.0119 18.7866 21.0525 18.3152 21.1453 17.8954C21.2379 17.4758 21.3436 17.1595 21.4617 16.9464C21.5798 16.7335 21.7131 16.5539 21.8614 16.4083C22.01 16.2623 22.1159 16.1739 22.178 16.1435C22.2398 16.1129 22.2891 16.0921 22.3262 16.0796C22.6238 15.9823 22.9739 16.0766 23.3772 16.3627C23.7801 16.6487 24.1581 17.0017 24.5116 17.4214C24.8649 17.8413 25.2894 18.3125 25.7852 18.8356C26.2813 19.3589 26.715 19.7479 27.0868 20.0038L27.4586 20.2228C27.7068 20.369 28.0292 20.5028 28.4259 20.6245C28.822 20.7461 29.169 20.7765 29.467 20.7157L34.2271 20.6428C34.6979 20.6428 35.0642 20.5663 35.3241 20.4145C35.5845 20.2624 35.7392 20.0949 35.7891 19.9126C35.8388 19.7302 35.8415 19.5232 35.7985 19.2918C35.7544 19.0609 35.711 18.8995 35.6677 18.8083Z" />
</svg>
